<svg width="2228" height="1525" viewBox="0 0 2228 1525" fill="none" xmlns="http://www.w3.org/2000/svg">
<path d="M2170.23 10.0957C2168.64 8.0567 2166.75 6.11713 2166.95 5.86847C2168.34 4.17756 2170.03 2.68558 2171.92 1.59146C2172.22 1.39253 2174.91 3.97863 2174.71 4.32676C2173.71 6.16686 2172.17 7.70857 2170.23 10.046V10.0957ZM346.139 487.926C349.172 486.783 352.753 486.335 355.041 484.346C356.632 482.953 357.528 478.975 356.682 477.085C354.693 472.559 351.957 468.183 348.576 464.602C346.686 462.613 342.657 461.27 339.972 461.717C334.899 462.613 329.976 464.701 325.201 466.84C320.029 469.177 318.786 473.703 323.212 476.737C330.025 481.411 336.441 487.877 346.139 487.926ZM1903.96 610.368C1906.65 609.274 1910.33 608.876 1911.72 606.837C1912.62 605.594 1910.73 601.466 1909.03 599.477C1901.82 590.724 1894.41 582.07 1886.61 573.864C1884.77 571.925 1879.69 570.284 1878.4 571.328C1876.16 573.118 1874.02 577.594 1874.77 580.18C1876.51 586.198 1879.34 592.116 1882.78 597.388C1887.5 604.748 1893.57 610.865 1903.96 610.368ZM1044.04 1093.97C1040.55 1096.31 1036.68 1098.49 1033.39 1101.38C1032.6 1102.07 1033.19 1105.46 1034.14 1106.95C1038.71 1113.86 1043.69 1120.52 1048.41 1127.34C1056.52 1139.12 1065.52 1135.2 1073.43 1127.69C1079 1122.41 1077.7 1115.1 1071.29 1110.78C1064.63 1106.25 1058.06 1101.68 1051.35 1097.25C1049.41 1096.01 1047.12 1095.31 1043.99 1093.97H1044.04ZM938.006 1005.84C940.642 1004.55 946.113 1002.41 951.086 999.426C956.059 996.442 957.253 991.916 956.159 985.899C953.771 972.819 944.322 963.967 937.757 953.374C937.061 952.23 931.541 952.18 931.044 953.125C928.159 958.446 925.225 964.066 924.081 969.935C922.738 976.847 923.236 984.108 922.987 991.22C922.639 1000.02 927.264 1005.69 938.006 1005.79V1005.84ZM995.099 1101.78C995.099 1100.73 995.199 1099.64 995.248 1098.59C989.778 1093.82 984.904 1087.85 978.638 1084.47C967.846 1078.7 956.258 1074.37 944.869 1069.8C937.459 1066.81 930.695 1071.14 931.541 1078.9C932.734 1090.14 934.923 1101.33 937.161 1112.42C938.454 1118.83 942.979 1120.38 949.146 1118.73C955.81 1116.94 962.872 1116.45 969.188 1114.01C978.091 1110.58 986.495 1105.9 995.149 1101.78H995.099ZM1808.18 452.318C1806.39 438.194 1805.14 426.606 1803.35 415.118C1802.26 408.205 1798.68 406.962 1792.86 411.487C1780.33 421.235 1767.79 431.082 1755.71 441.377C1746.51 449.185 1747.6 451.97 1758.94 456.595C1771.52 461.717 1783.71 467.785 1796.24 473.007C1797.73 473.653 1801.66 472.211 1802.16 470.868C1804.8 464.104 1806.73 456.993 1808.18 452.268V452.318ZM1177.22 1145.04C1179.11 1144.35 1181.55 1144.15 1182.99 1142.85C1190.65 1136.14 1197.61 1128.43 1197.16 1117.69C1196.81 1109.63 1198.46 1102.77 1202.24 1096.01C1203.38 1093.92 1203.63 1091.28 1204.27 1088.94C1201.59 1088.89 1198.75 1088.2 1196.27 1088.89C1179.61 1093.52 1162.9 1098.15 1146.44 1103.47C1140.42 1105.41 1134.9 1108.99 1129.43 1112.32C1126.09 1114.36 1125.75 1117.14 1129.77 1119.33C1133.11 1121.17 1136.39 1123.06 1139.67 1125C1150.26 1131.22 1160.86 1137.48 1171.5 1143.55C1173.09 1144.45 1175.13 1144.55 1177.22 1145.09V1145.04ZM1222.97 945.615C1223.42 945.615 1223.82 945.566 1224.27 945.516C1224.07 941.736 1224.12 937.857 1223.57 934.127C1223.22 931.989 1221.83 930.049 1220.89 928.01C1218.95 929.204 1216.96 930.298 1215.17 931.69C1214.27 932.386 1213.92 933.68 1213.18 934.624C1205.22 945.168 1197.36 955.761 1189.21 966.155C1185.87 970.432 1180.95 973.764 1178.41 978.439C1174.73 985.252 1183.64 987.639 1185.08 992.712C1189.11 1006.94 1203.03 1013.15 1210.44 1024.74C1214.12 1030.51 1221.33 1028.32 1222.43 1021.46C1224.12 1010.67 1225.86 999.724 1225.81 988.833C1225.76 974.411 1223.97 959.988 1222.97 945.566V945.615ZM880.714 607.185C879.172 609.672 876.835 611.661 876.984 613.501C877.233 617.927 877.681 622.851 879.819 626.531C886.334 637.97 884.295 650.353 881.609 661.344C879.272 670.992 882.355 677.955 885.29 685.763C886.831 689.791 889.815 690.388 893.297 688.001C903.691 680.939 913.985 673.777 924.429 666.765C928.507 664.03 932.685 661.344 937.111 659.156C942.88 656.271 944.571 651.397 940.244 646.573C936.763 642.744 932.685 639.312 928.408 636.378C917.467 628.869 906.326 621.558 895.087 614.446C890.909 611.81 886.284 609.92 880.714 607.135V607.185ZM1144.4 1314.23C1144.94 1314.13 1145.49 1313.98 1146.09 1313.89C1145.29 1309.51 1144.79 1304.98 1143.6 1300.71C1139.57 1286.53 1135.64 1272.31 1130.97 1258.38C1128.88 1252.17 1125.6 1251.72 1120.72 1256.05C1117.39 1259.03 1115.05 1263.16 1111.62 1265.94C1100.73 1274.89 1089.59 1283.5 1078.4 1292.1C1075.62 1294.24 1072.09 1295.53 1069.4 1297.77C1066.56 1300.11 1066.07 1303.49 1069.7 1305.43C1079.3 1310.6 1088.75 1316.17 1098.89 1320C1111.92 1324.98 1125.75 1327.91 1137.04 1336.96C1139.07 1338.6 1144.5 1339.75 1145.04 1338.9C1146.78 1336.26 1147.78 1332.53 1147.58 1329.35C1147.18 1324.28 1145.59 1319.26 1144.5 1314.23H1144.4ZM928.607 1041.3C928.457 1051.45 929.054 1051.2 938.504 1054.18C948.848 1057.46 959.938 1060.55 968.442 1066.76C976.897 1072.98 985.6 1078.05 995.248 1080.79C1003.95 1083.28 1013.45 1084.07 1022.55 1083.87C1029.71 1083.72 1032.8 1076.91 1028.72 1072.58C1023.75 1067.21 1019.07 1061.04 1013 1057.31C1000.92 1049.9 993.856 1038.47 986.297 1027.33C975.355 1011.26 971.227 1009.72 953.373 1015.89C951.583 1016.48 949.594 1016.53 947.853 1017.28C932.088 1024.04 929.204 1023.84 928.557 1041.25L928.607 1041.3ZM1170.31 1167.57C1167.72 1165.68 1165.33 1163.69 1162.7 1162.15C1150.31 1154.94 1137.93 1147.63 1125.35 1140.77C1118.73 1137.19 1112.57 1131.12 1103.76 1134.95C1095.96 1138.38 1088.1 1141.61 1080.19 1144.79C1076.66 1146.19 1074.87 1148.23 1077.11 1151.81C1080.29 1156.78 1083.28 1162 1087.15 1166.43C1099.59 1180.7 1112.37 1194.68 1124.95 1208.75C1129.03 1213.28 1133.55 1213.23 1137.28 1209.05C1147.43 1197.76 1157.28 1186.12 1167.12 1174.53C1168.42 1172.99 1168.91 1170.71 1170.26 1167.57H1170.31ZM1014.99 672.186C1018.08 670.544 1022.7 669.45 1025.04 666.566C1033.39 656.271 1041.1 645.479 1048.76 634.687C1055.03 625.835 1060.99 616.784 1066.76 607.633C1067.96 605.743 1068.95 602.112 1067.96 600.819C1061.94 592.862 1055.47 585.303 1048.86 577.843C1045.88 574.461 1041.65 574.113 1038.81 577.545C1031.7 586.099 1024.94 595.001 1018.32 603.953C1011.86 612.705 1006.04 621.906 999.476 630.559C995.646 635.682 990.524 639.859 986.794 645.032C985.202 647.27 984.208 652.342 985.55 653.934C992.911 662.786 1002.06 669.251 1014.94 672.235L1014.99 672.186ZM949.843 1334.52C951.235 1334.18 953.125 1333.88 954.865 1333.18C964.116 1329.5 973.217 1325.42 982.567 1322.04C990.772 1319.06 999.227 1316.82 1007.58 1314.33C1012.51 1312.84 1017.43 1311.1 1022.45 1310.16C1028.72 1308.91 1031.55 1304.73 1028.12 1299.61C1024.49 1294.14 1020.06 1289.07 1015.44 1284.34C1009.82 1278.58 1003.45 1273.5 997.735 1267.83C992.016 1262.16 987.291 1255.35 981.075 1250.33C972.62 1243.46 968.691 1245.25 964.961 1255.45C959.391 1270.77 953.473 1285.94 947.903 1301.3C946.61 1304.83 946.113 1308.66 945.466 1312.39C944.621 1317.27 944.074 1322.14 943.228 1327.01C942.333 1331.94 944.67 1334.13 949.793 1334.62L949.843 1334.52ZM1009.17 1114.91C1004.75 1116.2 1001.42 1116.75 998.481 1118.14C992.513 1120.92 986.993 1124.75 980.876 1127.04C972.471 1130.22 963.668 1132.41 955.015 1135.05C950.39 1136.49 948.649 1139.82 949.246 1144.4C950.887 1157.63 952.876 1170.66 961.629 1181.7C965.558 1186.67 967.796 1192.94 971.576 1198.06C972.769 1199.65 977.544 1200.89 978.787 1199.9C988.783 1191.89 998.431 1183.49 1007.88 1174.88C1015.94 1167.57 1022.95 1158.92 1031.6 1152.45C1041.5 1145.09 1042.74 1139.92 1033.39 1131.32C1028.87 1127.19 1023.89 1123.41 1018.87 1119.93C1015.74 1117.79 1012.06 1116.4 1009.17 1114.95V1114.91ZM452.268 360.71C452.815 360.81 453.412 360.909 454.009 361.059C453.86 364.391 453.909 367.723 453.511 371.005C452.318 380.454 454.456 382.991 464.104 382.245C468.033 381.946 471.863 380.255 475.692 379.211C479.074 378.316 482.505 376.625 485.838 376.724C503.443 377.321 519.904 371.502 536.714 367.723C543.328 366.231 544.373 362.551 540.195 357.329C528.259 342.21 516.324 327.141 503.99 312.37C498.669 306.005 492.551 300.285 486.385 294.666C479.124 288.051 473.007 289.643 469.674 298.694C466.541 307.148 462.961 315.504 460.623 324.157C457.341 336.242 455.003 348.526 452.218 360.76L452.268 360.71ZM1327.26 623.647C1327.21 616.833 1324.73 614.695 1319.06 616.734C1313.34 618.773 1307.67 621.458 1302.45 624.542C1295.53 628.62 1289.02 633.444 1282.3 637.92C1268.68 646.971 1255 655.824 1241.52 665.074C1238.24 667.312 1235.31 670.395 1232.92 673.578C1231.68 675.269 1230.93 679.198 1231.98 680.342C1243.12 692.775 1254.65 704.86 1266.14 716.995C1266.74 717.641 1267.78 717.94 1268.63 718.337C1277.58 722.614 1286.53 726.891 1295.48 731.119C1300.21 733.357 1302.84 730.87 1304.04 726.693C1305.43 721.868 1306.47 716.995 1307.42 712.071C1310.2 697.4 1312.39 682.58 1315.63 668.008C1318.56 654.829 1322.54 641.898 1326.02 628.869C1326.57 626.83 1327.01 624.741 1327.26 623.647ZM1151.56 888.423C1151.56 888.423 1151.86 888.423 1152.01 888.473C1152.2 891.556 1152.15 894.639 1152.6 897.673C1154.69 911.499 1156.68 925.324 1159.12 939.1C1160.16 944.869 1161.75 950.688 1163.94 956.109C1165.93 961.082 1169.86 961.331 1173.54 957.551C1176.03 955.015 1177.72 951.484 1180.55 949.544C1191.69 941.836 1198.01 931.044 1202.43 918.611C1204.47 912.792 1207.71 907.47 1209.99 901.702C1210.89 899.414 1211.39 896.529 1210.89 894.142C1208.05 880.416 1205.32 866.69 1201.69 853.163C1199.7 845.703 1195.77 838.74 1193.18 831.38C1188.46 818.101 1184.03 804.673 1179.51 791.345C1178.66 788.858 1177.92 786.322 1176.87 783.935C1174.88 779.359 1171.1 778.713 1168.22 782.691C1166.83 784.631 1166.53 787.466 1165.88 789.952C1164.39 795.572 1162.45 801.092 1161.75 806.812C1160.51 816.659 1155.64 825.66 1154.39 835.11C1152.1 852.715 1152.35 870.619 1151.56 888.423ZM1476.51 1151.26C1471.59 1148.92 1468.21 1147.73 1465.32 1145.84C1453.83 1138.33 1441.7 1131.57 1431.35 1122.71C1422.9 1115.45 1414.05 1109.98 1403.4 1107.94C1394.4 1106.2 1388.24 1102.12 1384.11 1093.92C1383.01 1091.73 1379.53 1089.39 1377.24 1089.44C1371.38 1089.64 1365.61 1091.58 1359.74 1092.08C1350.59 1092.82 1341.34 1093.57 1332.14 1093.22C1323.73 1092.87 1315.43 1090.83 1307.02 1090.09C1304.54 1089.89 1301.85 1091.48 1299.26 1092.28C1300.81 1094.42 1301.95 1097.05 1303.94 1098.64C1324.83 1114.76 1346.21 1130.67 1361.48 1152.45C1371.48 1166.68 1384.7 1170.31 1399.92 1168.42C1422.8 1165.58 1446.57 1166.68 1468.01 1155.98C1470.34 1154.79 1472.63 1153.45 1476.41 1151.31L1476.51 1151.26ZM1163.59 549.495C1152.75 559.492 1143 568.493 1133.21 577.395C1125.5 584.457 1117.69 591.42 1109.93 598.432C1104.66 603.207 1105.16 608.279 1109.24 613.601C1112.27 617.579 1115.1 621.657 1117.99 625.735C1127.79 639.362 1137.58 652.989 1147.38 666.665C1148.18 667.809 1148.77 669.152 1149.32 670.445C1154.24 681.685 1158.77 693.123 1164.19 704.114C1168.57 712.917 1174.53 713.215 1180.6 705.556C1187.22 697.201 1193.88 688.846 1200 680.143C1201.49 678.004 1202.38 673.877 1201.34 671.738C1195.67 660.101 1189.7 648.762 1184.98 636.527C1180.6 625.238 1178.31 613.899 1176.08 602.361C1173.14 587.491 1171 572.472 1168.17 557.602C1167.62 554.767 1165.18 552.28 1163.54 549.495H1163.59ZM1108.39 1103.96C1108.49 1103.72 1108.59 1103.42 1108.69 1103.17C1109.63 1103.17 1110.78 1103.52 1111.52 1103.12C1125.15 1096.11 1138.68 1088.99 1152.25 1081.98C1155.29 1080.39 1158.32 1078.4 1161.6 1077.71C1173.19 1075.37 1184.93 1073.58 1196.52 1071.39C1216.86 1067.56 1213.82 1059.55 1203.53 1046.92C1203.08 1046.37 1202.58 1045.88 1202.04 1045.38C1189.21 1034.29 1180.7 1019.97 1172.1 1005.74C1166.88 997.039 1162.8 996.641 1155.88 1004.45C1148.62 1012.65 1140.77 1019.77 1130.82 1025.14C1122.91 1029.41 1115.65 1036.13 1110.23 1043.34C1105.06 1050.25 1098.99 1054.68 1091.38 1057.71C1086.76 1059.55 1082.08 1061.29 1077.41 1063.08C1072.33 1065.07 1066.71 1067.86 1067.61 1073.73C1068.31 1078.3 1071.54 1083.42 1075.22 1086.46C1080.79 1091.08 1087.6 1094.32 1094.12 1097.7C1098.69 1100.08 1103.62 1101.83 1108.39 1103.86V1103.96ZM1335.07 1177.87V1177.42C1336.02 1177.42 1337.01 1177.52 1337.91 1177.42C1341.29 1176.87 1344.62 1176.28 1347.95 1175.68C1346.81 1172 1346.26 1167.97 1344.47 1164.64C1330.89 1138.93 1305.63 1125.2 1284.79 1106.85C1284.29 1106.4 1283.6 1106 1282.9 1105.85C1272.76 1103.42 1263.26 1099.79 1255.75 1091.98C1254.4 1090.54 1251.32 1090.64 1249.03 1090.19C1245.8 1089.59 1242.32 1089.59 1239.24 1088.5C1234.56 1086.91 1231.23 1088.25 1228.94 1092.23C1225.91 1097.6 1222.92 1102.97 1220.39 1108.59C1215.36 1119.63 1210.14 1130.57 1206.06 1141.96C1202.29 1152.45 1206.06 1157.48 1216.96 1160.91C1224.81 1163.39 1232.32 1167.02 1240.18 1169.61C1244.36 1171 1248.83 1171.55 1253.21 1172.15C1261.62 1173.34 1270.07 1174.29 1278.48 1175.53C1281.96 1176.03 1285.34 1177.72 1288.82 1177.77C1304.19 1178.02 1319.6 1177.87 1334.97 1177.87H1335.07ZM915.179 1088.35C915.925 1088.15 916.671 1087.95 917.417 1087.75C914.483 1081.34 911.946 1074.77 908.465 1068.65C907.57 1067.06 903.74 1065.92 901.602 1066.32C890.263 1068.7 879.023 1071.64 867.784 1074.32C865.247 1074.92 862.711 1075.82 860.175 1075.82C855.251 1075.82 851.621 1076.61 849.93 1082.28C849.283 1084.42 845.255 1085.66 842.669 1087.1C837.795 1089.84 832.772 1092.23 827.948 1095.11C824.119 1097.4 820.289 1099.89 816.858 1102.72C808.105 1109.83 797.81 1115.1 791.892 1125.5C786.371 1135.1 779.906 1144.2 774.137 1153.65C772.795 1155.84 772.546 1158.77 771.85 1161.36C774.286 1161.6 776.773 1162.3 779.16 1162.1C799.948 1160.06 820.687 1157.87 841.425 1155.64C849.88 1154.69 858.633 1154.44 866.69 1152.06C878.029 1148.72 888.821 1143.65 899.911 1139.47C904.785 1137.63 909.708 1135.59 914.831 1134.95C919.903 1134.3 921.197 1132.56 920.451 1127.59C918.461 1114.51 916.969 1101.38 915.278 1088.3L915.179 1088.35ZM1114.76 1229.69C1112.17 1226.16 1110.23 1223.27 1108.04 1220.64C1101.18 1212.58 1092.57 1205.47 1087.65 1196.42C1080.59 1183.44 1072.68 1171.65 1061.04 1162.65C1059.15 1161.21 1054.88 1160.26 1053.49 1161.36C1045.73 1167.42 1038.42 1174.14 1031.11 1180.75C1025.54 1185.82 1020.56 1191.59 1014.64 1196.22C1008.43 1201.14 1001.22 1204.87 994.801 1209.65C987.938 1214.72 986.247 1219.49 990.524 1226.9C995.547 1235.66 1001.51 1244.21 1008.53 1251.42C1018.57 1261.77 1030.11 1270.67 1040.75 1280.46C1049.31 1288.32 1050.95 1288.82 1059.95 1281.71C1063.23 1279.12 1065.82 1275.54 1068.65 1272.41C1070.89 1269.97 1072.73 1267.09 1075.32 1265.1C1085.61 1257.09 1096.3 1249.58 1106.45 1241.33C1109.68 1238.69 1111.52 1234.36 1114.81 1229.74L1114.76 1229.69ZM1230.38 881.858C1238.29 873.205 1245.95 866.739 1251.17 858.733C1259.43 846.1 1266.79 832.822 1273.15 819.145C1281.76 800.695 1288.87 781.597 1297.03 762.948C1299.56 757.179 1297.77 753.598 1292.9 751.31C1287.78 748.923 1282.45 746.635 1276.93 745.392C1266.04 742.955 1255.75 739.872 1248.69 730.323C1247.04 728.085 1244.11 726.892 1242.17 724.803C1238.29 720.725 1234.26 716.647 1231.08 712.071C1227.4 706.799 1224.81 700.832 1221.33 695.46C1218.1 690.437 1214.62 690.388 1211.34 695.162C1204.47 705.158 1198.65 716.05 1190.75 725.101C1181 736.341 1183.93 746.635 1190.9 756.632C1201.39 771.601 1204.08 788.958 1208 806.016C1208.75 809.249 1209.94 812.332 1210.89 815.515C1213.47 824.119 1216.01 832.772 1218.55 841.376C1222.38 854.456 1226.21 867.535 1230.38 881.759V881.858ZM886.284 582.568C887.329 584.756 888.075 588.933 890.561 590.923C895.336 594.702 901.204 597.089 906.476 600.322C921.893 609.722 937.608 618.624 952.478 628.869C963.27 636.279 971.327 635.632 978.936 624.89C986.296 614.496 994.751 604.897 1001.51 594.205C1007.78 584.258 1012.8 573.466 1017.73 562.774C1018.92 560.188 1018.72 555.314 1017.03 553.325C1011.51 546.909 1005.69 540.295 998.68 535.719C983.76 526.071 967.945 517.915 952.727 508.665C941.189 501.653 929.253 495.734 916.522 491.209C911.001 489.219 907.47 490.463 906.128 495.884C904.685 501.553 904.337 507.521 902.945 513.24C900.01 525.176 896.529 537.012 893.595 548.998C891.009 559.591 888.92 570.333 886.235 582.617L886.284 582.568ZM924.479 887.329C925.523 887.428 926.518 887.528 927.562 887.627C929.253 884.743 931.839 882.057 932.486 878.974C937.26 856.196 942.93 833.817 952.08 812.282C958.198 797.91 962.176 782.642 967.348 767.871C970.531 758.671 973.018 749.022 977.792 740.717C983.86 730.025 992.016 720.526 998.978 710.331C1001.17 707.048 1002.76 703.169 1003.7 699.34C1004.2 697.45 1003.26 694.317 1001.81 693.024C994.303 686.31 986.446 679.944 978.588 673.628C970.382 667.063 962.027 667.61 953.622 673.479C935.569 686.16 916.621 697.251 896.579 706.402C891.357 708.789 889.616 712.27 890.163 717.641C891.506 730.074 891.755 742.756 894.142 754.941C897.275 770.756 902.05 786.222 906.177 801.789C907.669 807.458 909.31 813.128 910.952 818.748C912.046 822.527 913.389 826.257 914.333 830.136C915.278 833.817 915.975 837.497 916.571 841.227C918.014 850.079 919.207 858.932 920.699 867.784C921.793 874.349 923.236 880.814 924.578 887.329H924.479ZM1174.83 496.53C1176.27 500.558 1178.07 505.532 1179.81 510.505C1184.83 507.869 1191.44 506.477 1194.63 502.399C1204.37 489.816 1218 483.102 1231.13 475.593C1238.94 471.117 1248.64 469.227 1255.05 463.458C1264.5 455.003 1275.34 449.831 1286.43 445.007C1298.82 439.586 1304.34 432.176 1300.41 419.892C1295.38 404.376 1288.37 389.555 1282.25 374.437C1280.91 371.154 1279.62 367.822 1278.67 364.44C1276.73 357.428 1275.89 349.968 1273.05 343.404C1268.93 333.905 1263.36 325.052 1258.43 315.901C1254.65 308.889 1251.12 308.392 1245.95 314.658C1240.58 321.223 1234.61 327.638 1230.53 334.999C1221.38 351.361 1212.98 368.121 1204.82 385.03C1199.7 395.672 1196.22 407.111 1190.85 417.555C1184.78 429.441 1184.98 442.371 1182.79 454.904C1181.15 464.403 1179.51 473.902 1177.77 483.351C1177.02 487.33 1176.03 491.209 1174.83 496.58V496.53ZM1796.84 514.334C1795.5 505.83 1793.85 502.249 1782.71 494.69C1770.03 486.037 1756.55 478.527 1743.52 470.321C1732.48 463.359 1729.05 464.403 1723.08 475.841C1717.42 486.733 1711.15 497.326 1705.23 508.068C1703.99 510.356 1702.79 512.743 1702.05 515.18C1699.46 523.585 1696.63 531.94 1694.79 540.494C1691.95 553.673 1688.42 567.001 1687.92 580.33C1687.33 595.846 1688.77 611.611 1691.11 627.028C1692.9 639.113 1696.63 651.049 1700.8 662.587C1703.59 670.246 1706.97 670.495 1714.08 666.019C1715.87 664.875 1717.61 663.582 1719.21 662.14C1733.18 649.557 1743.57 634.24 1752.13 617.778C1763.42 596.095 1774.31 574.212 1784.31 551.883C1789.68 539.897 1792.76 526.867 1796.84 514.334ZM1020.02 716.547C1015.99 721.918 1012.21 725.847 1009.77 730.522C1001.22 746.884 992.762 763.345 985.003 780.155C979.831 791.345 975.604 802.982 971.576 814.62C965.856 831.131 960.734 847.891 955.313 864.502C955.015 865.397 954.468 866.192 954.02 867.038C945.963 881.659 944.024 897.822 942.383 914.035C942.134 916.522 942.78 919.307 943.775 921.644C948.45 933.033 953.125 944.472 958.397 955.612C961.082 961.381 964.414 967.05 968.542 971.775C970.183 973.665 976.151 974.609 977.743 973.217C988.982 963.32 999.873 953.075 1004.8 938.155C1006.79 932.188 1009.97 926.618 1012.9 920.998C1014.2 918.511 1016.63 916.522 1017.73 913.985C1025.63 895.435 1034.54 877.283 1035.08 856.345C1035.58 837.397 1038.37 818.499 1038.57 799.551C1038.66 787.864 1035.28 776.127 1034.49 764.34C1033.34 748.028 1027.92 733.158 1020.11 716.497L1020.02 716.547ZM638.268 449.334C637.771 449.483 637.323 449.583 636.875 449.732C638.218 453.909 638.616 458.833 641.152 462.016C646.076 468.282 652.044 473.802 657.962 479.223C663.632 484.445 669.649 489.269 675.816 493.944C679.596 496.829 683.773 499.315 688.1 501.354C691.034 502.747 694.665 502.747 697.698 503.94C714.806 510.604 732.362 508.118 749.768 506.178C753.001 505.83 755.885 502.846 758.919 501.006C764.738 497.475 770.109 492.353 776.425 490.612C792.936 486.086 802.982 474.399 812.083 461.469C818.151 452.865 817.007 448.737 807.757 443.764C795.423 437.149 782.791 431.132 770.308 424.766C765.285 422.18 760.56 418.798 755.289 416.809C743.154 412.184 730.82 408.155 718.487 403.978C709.535 400.944 700.682 397.015 691.432 395.474C681.436 393.783 671.042 394.827 660.846 393.932C652.641 393.186 644.435 391.694 636.428 389.804C630.957 388.511 629.813 390.998 630.261 395.225C631.952 410.294 630.957 425.711 636.875 440.183C638.019 442.968 637.82 446.25 638.218 449.284L638.268 449.334ZM456.247 430.237C455.6 430.386 454.954 430.535 454.307 430.684C456.843 442.421 458.733 454.307 462.016 465.795C466.143 480.367 470.57 494.889 476.239 508.914C482.456 524.181 492.9 537.758 493.944 555.065C494.093 557.751 495.834 560.436 497.127 562.973C500.956 570.632 504.835 578.191 508.814 585.8C510.356 588.734 511.599 592.066 513.837 594.354C517.07 597.686 521.098 600.571 525.276 595.299C532.387 586.297 543.03 579.882 545.268 567.25C545.616 565.261 548.55 563.818 549.644 561.779C554.817 552.529 562.426 543.627 564.216 533.73C568.145 511.599 569.09 488.921 571.129 466.492C571.328 464.453 570.482 462.264 570.333 460.176C569.935 455.053 569.637 449.931 569.239 444.858C568.543 435.459 568.394 425.96 566.951 416.66C565.609 407.857 562.674 399.303 560.934 390.5C559.641 383.985 558 383.04 551.833 385.278C542.234 388.76 532.636 392.49 522.689 394.628C507.372 397.96 491.805 399.949 476.339 402.685C457.341 406.067 456.048 407.708 456.247 426.755C456.247 427.949 456.247 429.142 456.247 430.336V430.237ZM384.681 405.917C384.781 406.415 384.88 406.912 384.98 407.409C395.871 405.37 406.763 403.58 417.555 401.193C426.258 399.303 430.535 393.484 431.48 384.483C433.37 366.529 436.702 348.675 437.696 330.672C438.492 316.001 439.387 301.827 446.549 288.598C448.389 285.167 448.439 280.989 443.266 279.398C437.647 277.657 432.077 275.668 426.308 274.424C423.672 273.828 420.738 274.623 417.953 274.971C411.438 275.717 404.972 276.662 398.457 277.408C394.529 277.906 390.5 277.955 386.621 278.701C378.117 280.442 370.309 283.376 364.391 290.389C362.749 292.278 359.368 292.925 356.632 293.621C341.862 297.252 330.125 306.253 318.537 315.305C315.354 317.791 313.216 321.969 311.276 325.699C305.457 337.087 299.887 348.625 294.516 360.263C293.174 363.147 292.179 366.529 292.278 369.712C292.477 377.421 293.522 385.129 293.969 392.838C294.367 399.85 294.268 406.912 294.666 413.924C295.362 425.96 298.943 436.851 306.303 446.698C310.679 452.567 315.752 454.357 322.018 450.527C328.583 446.549 331.816 441.178 330.97 433.37C329.677 421.185 339.027 414.819 345.791 407.061C346.586 406.166 348.426 405.917 349.769 405.868C361.357 405.768 372.994 405.868 384.582 405.868L384.681 405.917ZM1315.43 500.608C1316.12 500.509 1316.77 500.36 1317.47 500.26C1315.53 487.081 1313.69 473.902 1311.55 460.772C1310.7 455.65 1306.77 454.208 1302.4 455.799C1299.66 456.794 1297.13 458.982 1295.04 461.121C1288.52 467.884 1281.16 472.46 1271.41 472.957C1267.73 473.156 1263.41 474.15 1260.67 476.339C1252.61 482.953 1242.82 484.793 1233.47 488.175C1230.68 489.17 1226.8 492.104 1226.55 494.441C1225.71 503.244 1219.84 506.228 1212.93 508.963C1209.94 510.157 1207.31 512.445 1204.72 514.434C1198.65 519.059 1193.08 524.331 1186.67 528.309C1177.42 534.029 1176.18 536.615 1180.5 546.462C1181.35 548.401 1182.04 550.44 1182.69 552.479C1190.75 579.086 1194.48 607.036 1207.76 632.002C1208.5 633.444 1208.6 635.234 1208.95 636.826C1209.99 641.451 1210.84 646.176 1212.18 650.751C1213.67 655.873 1217.5 658.012 1222.03 655.028C1229.29 650.154 1236.6 645.032 1242.87 638.964C1253.01 629.067 1267.14 626.034 1277.98 617.43C1278.48 617.032 1279.32 617.032 1280.02 616.833C1293.25 612.308 1306.52 607.832 1319.75 603.256C1324.43 601.665 1326.52 598.482 1327.71 593.409C1331.04 579.235 1329 565.658 1325.82 551.783C1321.94 534.874 1318.86 517.766 1315.48 500.708L1315.43 500.608ZM732.461 1162.6C736.738 1161.5 742.905 1161.55 746.784 1158.62C757.676 1150.31 764.39 1138.38 770.905 1126.54C780.652 1108.84 795.771 1095.96 811.486 1084.22C821.93 1076.41 833.418 1070.05 846.2 1065.27C857.887 1060.9 869.226 1058.71 881.261 1057.41C885.936 1056.92 890.462 1054.43 894.789 1052.29C898.121 1050.65 901.851 1048.66 903.939 1045.78C906.476 1042.25 908.763 1037.67 908.863 1033.49C909.012 1028.37 903.84 1028.57 900.06 1028.82C880.167 1030.16 860.324 1031.7 840.431 1033.24C836.204 1033.59 831.877 1033.79 827.799 1034.94C816.062 1038.22 804.673 1037.82 793.434 1032.85C791.593 1032.05 789.206 1032.6 787.068 1032.35C782.144 1031.75 776.475 1032.4 772.397 1030.16C763.693 1025.39 757.576 1028.72 751.061 1033.94C743.85 1039.71 736.689 1045.88 728.731 1050.4C707.197 1062.69 685.414 1074.67 663.283 1085.81C655.426 1089.74 646.275 1091.38 637.572 1093.37C622.552 1096.8 607.384 1099.64 592.365 1102.87C590.276 1103.32 588.336 1104.66 586.347 1105.56C587.441 1107.74 587.939 1110.78 589.679 1111.97C598.681 1118.14 607.633 1124.45 617.281 1129.43C630.559 1136.24 644.236 1142.46 658.211 1147.88C667.859 1151.61 678.203 1153.85 688.349 1156.03C695.709 1157.63 703.318 1158.02 710.828 1159.12C717.641 1160.06 724.405 1161.26 732.511 1162.5L732.461 1162.6ZM821.881 216.486C815.614 218.426 810.89 219.868 806.115 221.36C808.602 225.786 810.144 231.306 813.774 234.39C824.168 243.143 833.12 252.244 835.706 266.467C836.502 270.943 841.177 274.623 843.912 278.801C845.553 281.337 847.543 283.973 848.289 286.808C852.317 303.17 856.345 319.532 859.727 336.043C862.114 347.631 865.198 359.517 864.75 371.154C864.153 386.223 860.374 401.143 857.837 416.063C857.042 420.638 856.544 425.462 854.605 429.59C852.367 434.414 853.709 437 858.086 438.293C866.739 440.83 875.443 443.515 884.295 445.206C893.744 446.996 899.513 441.576 900.06 431.928C900.209 429.242 901.105 426.407 902.298 423.921C907.918 412.233 914.284 400.845 919.406 388.959C926.12 373.392 931.591 357.229 938.354 341.663C940.94 335.745 945.615 330.672 949.345 325.251C958.645 311.575 971.476 300.086 975.057 282.929C975.256 281.884 976.499 281.039 977.146 280.094C981.025 274.375 980.577 268.606 976.052 263.732C972.521 259.952 968.492 256.222 963.967 253.885C951.931 247.619 939.697 241.75 927.214 236.429C910.902 229.516 893.694 226.582 875.99 226.83C873.652 226.83 871.265 226.383 868.977 225.935C853.013 222.752 837.049 219.52 821.93 216.486H821.881ZM1045.93 373.392C1047.52 362.153 1043.54 352.753 1036.82 344.249C1035.13 342.11 1033.54 339.425 1033.19 336.789C1031.3 323.759 1026.78 312.022 1017.98 302.026C1014.05 297.55 1010.37 292.925 1006.79 288.151C1002.51 282.531 999.923 282.779 996.591 289.145C992.314 297.301 988.037 305.458 983.362 313.365C979.881 319.283 975.405 324.605 971.924 330.523C966.155 340.32 960.883 350.466 955.263 360.362C950.787 368.22 945.317 375.58 941.686 383.836C933.331 403.033 925.623 422.478 918.113 442.023C915.626 448.538 914.433 456.247 920.401 461.419C928.656 468.58 938.106 474.101 949.146 476.438C952.031 477.035 955.512 478.129 957.352 480.218C966.055 490.115 978.439 493.646 989.28 499.962C995.099 503.344 1000.62 507.422 1005.74 511.748C1013.8 518.562 1018.87 528.608 1029.81 532.387C1038.37 535.322 1039.36 535.073 1041.2 526.22C1042.84 518.363 1043.29 509.709 1046.92 502.846C1053.53 490.413 1057.86 478.278 1054.43 464.104C1053.68 461.021 1054.68 457.49 1054.73 454.208C1054.88 443.117 1055.42 431.928 1054.83 420.887C1054.43 413.377 1052.39 405.917 1050.95 398.457C1049.36 390.102 1047.62 381.797 1045.98 373.442L1045.93 373.392ZM1038.17 1482.78C1042.39 1481.88 1045.53 1481.98 1047.92 1480.64C1058.76 1474.72 1069.6 1468.7 1080.09 1462.14C1096.65 1451.79 1107.15 1435.88 1117.34 1419.87C1123.21 1410.66 1128.28 1400.97 1134 1391.62C1137.73 1385.55 1142.31 1380.03 1145.84 1373.86C1149.97 1366.75 1146.53 1360.93 1138.18 1359.59C1134.45 1358.99 1130.67 1358.4 1127.09 1357.2C1112.37 1352.18 1096.85 1349.05 1083.77 1339.9C1083.42 1339.65 1082.83 1339.65 1082.43 1339.45C1071.74 1334.33 1061.19 1328.9 1050.3 1324.28C1046.47 1322.64 1041.25 1321.3 1037.67 1322.59C1022.3 1328.01 1007.28 1334.52 992.115 1340.49C989.927 1341.34 987.49 1341.44 985.252 1342.13C978.737 1344.17 972.222 1346.11 965.856 1348.55C960.336 1350.69 955.164 1353.72 949.693 1355.86C944.024 1358.1 941.985 1361.23 943.974 1367.4C946.759 1376.2 948.549 1385.3 951.235 1394.15C952.826 1399.47 955.263 1404.6 957.253 1409.82C959.242 1414.99 961.032 1420.21 963.022 1425.39C967.149 1436.13 970.581 1447.07 982.119 1453.09C996.591 1460.65 1010.52 1469.3 1024.84 1477.16C1029.32 1479.59 1034.39 1481.09 1038.17 1482.58V1482.78ZM1903.86 506.974C1906.25 506.974 1908.14 506.875 1910.03 506.974C1926.94 508.168 1935 518.81 1931.61 535.172C1931.27 536.814 1931.27 538.504 1931.02 540.146C1928.18 558.596 1922.66 564.365 1907.29 557.005C1905.9 556.358 1902.67 556.607 1902.32 557.403C1901.53 559.044 1901.67 561.431 1902.22 563.321C1902.77 565.062 1904.11 566.703 1905.45 567.996C1914.6 576.699 1923.61 585.502 1933.2 593.708C1935 595.249 1940.07 595.448 1942.01 594.056C1949.62 588.486 1957.13 583.115 1965.18 578.092C1982.14 567.598 1985.42 548.401 1989.15 530.547C1990.8 522.59 1989.55 514.036 1989.45 505.731C1989.45 502.647 1989.55 499.365 1988.56 496.58C1983.93 483.351 1979.75 469.923 1973.89 457.291C1962.94 433.967 1945.94 415.764 1921.82 406.116C1911.62 402.038 1900.53 400.596 1890.38 395.175C1876.06 387.467 1859.95 388.262 1844.28 391.197C1840.65 391.893 1837.42 394.728 1833.89 396.22C1831.4 397.214 1828.32 398.607 1826.08 397.91C1820.51 396.12 1817.92 397.015 1818.02 402.983C1818.12 407.608 1819.22 412.432 1820.81 416.809C1824.04 425.761 1825.68 434.563 1822.85 443.963C1822.05 446.648 1823.05 449.931 1823.44 452.915C1824.04 457.391 1824.44 461.966 1825.58 466.342C1828.52 477.532 1818.47 491.408 1832.7 500.21C1833.24 500.558 1833.49 501.404 1833.69 502.05C1837.62 515.279 1847.32 521.844 1859.9 525.922C1866.76 528.16 1871.29 527.663 1876.01 521.695C1883.07 512.743 1891.43 505.134 1903.91 507.024L1903.86 506.974ZM845.603 369.115C844.807 364.192 844.211 359.964 843.465 355.787C841.724 346.039 839.934 336.292 838.093 326.544C837.596 323.759 837.646 320.178 835.955 318.438C828.495 310.58 828.893 299.987 825.412 290.786C824.367 287.902 823.522 284.868 821.831 282.332C814.122 270.744 806.016 259.355 798.258 247.817C795.075 243.093 792.588 237.871 789.156 233.395C787.466 231.157 783.885 228.223 781.945 228.72C770.507 231.555 758.273 233.495 748.227 239.164C732.81 247.817 718.536 258.609 704.561 269.551C690.537 280.492 676.264 291.582 664.377 304.712C656.122 313.862 651.546 326.395 645.529 337.535C642.644 342.906 640.406 348.625 637.472 353.947C634.737 358.92 635.732 361.655 641.252 362.401C654.133 364.092 667.013 365.684 679.894 367.375C682.033 367.673 684.221 367.772 686.21 368.568C705.407 375.978 725.797 379.509 744.099 390.152C760.709 399.8 781.299 400.845 797.064 413.825C804.126 419.644 813.973 422.279 822.825 425.661C825.412 426.656 830.932 426.308 831.628 424.865C835.408 417.157 838.79 409.051 840.978 400.745C842.669 394.479 842.221 387.715 843.067 381.25C843.614 377.023 844.758 372.945 845.553 369.264L845.603 369.115ZM672.285 882.555C671.39 896.778 675.667 905.929 682.281 914.533C685.116 918.262 687.354 923.186 687.851 927.811C689.89 945.914 698.792 960.684 710.231 973.764C718.586 983.313 729.03 990.972 738.33 999.625C747.68 1008.33 750.564 1008.48 759.516 999.426C761.505 997.437 763.445 995.199 764.837 992.762C772.993 978.29 780.901 963.668 789.107 949.196C794.876 939.001 798.556 928.557 795.672 916.572C794.926 913.488 795.92 909.957 796.318 906.675C799.004 886.036 807.011 865.994 798.805 844.459C793.036 829.291 790.35 812.979 786.023 797.263C785.377 794.826 783.736 792.489 782.045 790.599C770.059 777.271 759.914 762.102 743.204 753.648C737.534 750.813 713.861 752.056 709.435 756.731C708.639 757.576 708.242 758.77 707.496 759.715C703.02 765.384 699.29 771.999 693.819 776.475C677.905 789.555 667.56 804.922 667.61 826.307C667.61 839.585 666.417 852.814 669.45 865.944C670.942 872.409 671.638 879.023 672.186 882.505L672.285 882.555ZM856.793 702.274C868.729 703.467 870.42 701.428 868.132 689.791C867.485 686.558 867.485 683.177 867.038 679.894C864.949 664.676 862.711 649.458 860.672 634.19C860.224 630.709 860.523 627.078 860.175 623.547C859.628 617.231 859.279 610.816 858.036 604.599C857.688 602.759 854.704 600.372 852.665 600.123C842.37 598.681 832.026 597.686 821.632 596.94C811.685 596.194 801.54 596.94 791.792 595.15C770.457 591.37 749.719 592.713 729.03 598.681C723.41 600.322 717.293 600.471 711.375 600.869C694.814 602.063 678.303 602.958 661.742 604.102C660.399 604.201 658.708 604.698 657.863 605.594C647.717 616.336 631.007 616.883 621.657 628.918C621.21 629.515 619.917 629.664 619.021 629.813C606.141 631.504 596.294 638.268 587.74 647.618C584.656 650.95 584.805 653.685 588.038 655.973C597.935 662.886 607.483 670.743 618.325 675.816C630.36 681.486 644.186 683.475 656.271 689.095C667.063 694.118 677.706 695.858 689.294 696.157C696.256 696.356 703.418 698.245 710.082 700.583C723.062 705.158 736.241 708.093 749.967 706.949C764.141 705.755 777.967 704.86 792.389 706.451C808.304 708.242 824.666 706.203 840.829 705.357C846.2 705.059 851.471 703.368 856.793 702.324V702.274ZM1514.26 887.776C1514.75 887.677 1515.2 887.528 1515.7 887.428C1513.36 878.825 1510.78 870.221 1508.74 861.518C1506.55 852.267 1498.04 848.836 1491.83 843.912C1483.32 837.149 1474.77 828.396 1463.28 827.898C1454.78 827.501 1446.17 830.982 1437.52 832.325C1431.4 833.269 1427.18 836.253 1423.84 841.426C1418.67 849.433 1411.66 854.605 1401.41 854.157C1399.43 854.058 1396.34 854.555 1395.55 855.898C1391.62 862.512 1386.44 869.176 1385.15 876.388C1383.61 885.24 1382.71 893.645 1376.45 900.657C1375.06 902.199 1375.11 905.083 1374.56 907.371C1372.87 914.533 1371.57 921.793 1369.49 928.806C1366.35 939.25 1364.31 949.445 1367.89 960.286C1369.44 964.961 1370.58 970.134 1370.18 974.958C1369.14 987.341 1367.8 999.575 1375.75 1010.47C1376.55 1011.56 1376.55 1013.2 1376.95 1014.54C1380.28 1025.59 1383.21 1036.82 1387.04 1047.72C1389.78 1055.42 1393.81 1057.02 1401.66 1054.63C1426.18 1047.07 1447.62 1033.79 1467.46 1018.03C1488.79 1001.12 1503.42 979.185 1512.62 953.672C1515.2 946.511 1517.49 939.25 1519.33 931.839C1522.26 920.103 1523.71 908.465 1516.55 897.325C1514.85 894.739 1515 891.009 1514.31 887.776H1514.26ZM1428.87 435.807C1432.8 449.483 1431.05 467.785 1440.8 483.401C1441.8 484.992 1442.24 486.882 1442.84 488.672C1445.68 497.674 1448.06 506.825 1451.49 515.578C1452.64 518.512 1456.12 520.65 1458.71 522.988C1462.19 526.071 1466.32 528.608 1469.25 532.139C1474.72 538.703 1480.64 543.726 1489.39 545.865C1502.07 548.998 1514.66 552.778 1526.84 557.502C1542.7 563.619 1557.87 559.492 1572.89 555.563C1586.22 552.032 1594.43 540.394 1604.67 532.039C1606.81 530.299 1608.7 527.762 1609.64 525.176C1614.02 513.837 1618.6 502.598 1621.93 490.96C1624.12 483.351 1624.96 475.195 1625.26 467.188C1625.51 460.872 1624.12 454.556 1623.47 448.19C1623.22 445.604 1623.97 442.073 1622.58 440.581C1616.11 433.718 1618.05 426.308 1619.59 418.45C1620.14 415.565 1618.8 410.393 1616.66 409.249C1609.69 405.47 1602.13 401.541 1594.48 400.546C1582.34 398.905 1569.76 398.507 1557.57 399.502C1545.84 400.447 1534.35 403.978 1522.71 405.967C1518.58 406.663 1514.26 406.415 1510.03 406.315C1499.44 406.017 1488.84 404.774 1478.35 405.47C1468.21 406.166 1458.21 408.901 1448.16 410.543C1435.6 412.631 1429.2 421.069 1428.97 435.856L1428.87 435.807ZM1255 1340.74C1266.99 1340.94 1278.03 1338.65 1287.33 1330.15C1290.71 1327.06 1295.38 1325.32 1299.46 1322.99C1306.57 1318.91 1317.32 1320.5 1320.3 1309.76C1320.55 1308.86 1322.14 1308.36 1323.09 1307.67C1332.83 1300.66 1340.39 1292.4 1340.09 1279.22C1340.04 1276.64 1341.29 1273.45 1342.98 1271.51C1354.57 1258.48 1356.26 1242.17 1357.15 1226.21C1358 1211.59 1349.89 1204.67 1335.27 1204.62C1331.24 1204.62 1327.21 1205.32 1323.18 1205.37C1319.9 1205.37 1316.17 1205.82 1313.39 1204.52C1295.83 1196.32 1277.13 1198.51 1258.73 1197.71C1254.4 1197.51 1249.98 1196.52 1245.95 1195.02C1239.14 1192.49 1232.57 1189.35 1226.01 1186.27C1220.64 1183.78 1215.02 1181.55 1210.19 1178.26C1201.49 1172.35 1198.01 1172.89 1190.8 1180.35C1178.31 1193.33 1165.43 1205.87 1152.4 1218.25C1145.99 1224.32 1144.69 1228.84 1147.38 1237.2C1150.56 1247.14 1155.59 1256 1160.16 1265.25C1167.27 1279.57 1168.57 1296.23 1167.47 1312.64C1167.02 1319.01 1167.17 1325.37 1167.22 1331.74C1167.27 1338.6 1171.1 1342.48 1177.82 1342.73C1187.07 1343.08 1197.21 1345.32 1205.37 1342.28C1221.23 1336.41 1236.85 1345.37 1252.22 1340.64C1253.06 1340.39 1254.11 1340.74 1255.05 1340.84L1255 1340.74ZM801.689 1181.99C801.59 1181.15 801.49 1180.3 801.341 1179.46C791.892 1180.25 782.393 1180.55 773.093 1182.19C770.258 1182.69 766.13 1186.82 765.981 1189.5C764.738 1209.79 764.34 1230.14 763.793 1250.43C763.793 1252.02 764.439 1253.66 764.788 1255.3C768.219 1272.71 784.929 1282.06 790.798 1297.97C790.947 1298.37 791.444 1298.62 791.842 1298.92C799.7 1304.54 808.552 1309.21 815.266 1315.92C829.34 1330 847.692 1332.44 865.546 1336.12C881.311 1339.35 897.424 1340.84 913.289 1343.63C921.694 1345.07 923.434 1343.97 924.379 1335.77C925.921 1321.64 927.115 1307.37 930.148 1293.54C932.635 1282.11 937.061 1271.02 941.637 1260.17C946.411 1248.88 952.13 1237.99 957.849 1227.1C960.286 1222.48 960.535 1218.7 956.855 1214.77C955.064 1212.88 953.672 1210.64 952.031 1208.65C940.94 1195.27 940.791 1177.57 934.028 1162.5C929.9 1153.3 926.568 1150.86 916.969 1154.79C912.593 1156.58 908.714 1160.06 904.188 1161.06C885.389 1165.28 868.53 1177.52 848.04 1174.73C847.145 1174.63 846.2 1175.13 845.255 1175.28C830.733 1177.52 816.211 1179.76 801.689 1181.99ZM1353.02 268.705C1350.49 268.705 1348.8 268.556 1347.16 268.705C1324.68 271.043 1302.94 277.06 1281.16 282.779C1276.14 284.122 1275.09 286.858 1276.83 291.234C1280.61 300.683 1284.69 310.033 1288.22 319.582C1295.43 339.226 1302.4 358.97 1309.26 378.763C1310.7 382.941 1311.05 387.516 1312.14 391.843C1314.28 400.198 1317.32 408.404 1318.71 416.908C1319.9 424.219 1322.24 427.253 1329.4 424.766C1341.74 420.439 1354.07 416.66 1367 414.024C1380.38 411.288 1393.06 405.37 1406.24 401.342C1412.21 399.502 1414.34 395.374 1415.54 389.953C1417.28 382.095 1419.07 374.238 1421.06 366.43C1422.6 360.462 1432.6 353.101 1436.72 355.389C1443.74 359.218 1438.76 364.838 1438.02 369.861C1437.22 375.481 1436.43 381.101 1436.43 386.77C1436.43 390.55 1439.01 393.584 1443.09 391.545C1452.59 386.82 1463.93 394.628 1472.93 386.87C1473.68 386.223 1475.67 387.069 1477.11 387.168C1481.58 387.566 1486.06 388.412 1490.54 388.163C1502.12 387.566 1513.66 386.671 1525.2 385.626C1532.01 385.03 1538.73 383.886 1545.49 382.991C1549.27 382.493 1553.05 381.449 1556.78 381.648C1571 382.444 1585.18 383.687 1599.4 384.632C1600.89 384.731 1603.08 384.383 1603.83 383.438C1604.57 382.493 1604.32 380.156 1603.63 378.913C1593.48 359.766 1579.95 342.807 1562.65 330.374C1549.82 321.173 1537.43 312.171 1527.54 299.788C1525.45 297.202 1521.07 296.406 1517.64 294.964C1513.31 293.174 1508.49 292.278 1504.61 289.792C1499.69 286.659 1495.36 282.531 1491.08 278.502C1485.21 272.982 1482.23 273.43 1477.31 279.547C1468.06 290.985 1464.82 304.363 1463.03 318.487C1462.59 321.77 1460.8 325.201 1458.76 327.837C1455.37 332.114 1451.69 336.391 1447.32 339.524C1444.43 341.613 1439.76 343.105 1436.62 342.21C1433.84 341.414 1430.06 336.938 1430.21 334.253C1430.56 328.136 1432.05 321.72 1434.78 316.25C1441.05 303.816 1448.56 291.98 1455.18 279.696C1457.61 275.17 1456.37 271.192 1450.7 269.998C1444.93 268.755 1439.16 267.462 1433.34 266.666C1427.47 265.87 1421.36 266.368 1415.64 265.075C1403.5 262.24 1391.77 262.688 1379.63 265.572C1370.68 267.711 1361.28 267.959 1352.97 268.954L1353.02 268.705ZM708.49 527.712C702.473 526.668 694.864 524.53 687.205 524.132C673.13 523.435 664.328 515.18 656.371 504.985C648.165 494.541 638.716 484.843 631.902 473.554C625.089 462.215 620.911 449.284 615.64 437.05C615.291 436.254 615.54 435.16 615.441 434.215C614.496 425.313 613.501 416.411 612.606 407.509C612.009 401.441 611.263 395.374 611.064 389.307C610.816 382.593 605.295 377.47 598.731 379.062C593.409 380.355 588.336 382.493 583.164 384.284C578.589 385.875 578.29 388.66 579.335 393.236C581.473 402.436 582.866 411.836 583.96 421.235C585.104 430.684 585.104 440.233 586.347 449.632C588.685 467.138 589.58 484.594 587.342 502.15C586.546 508.267 586.198 514.832 583.662 520.253C575.356 538.007 573.814 558.994 558.696 573.566C558.348 573.864 558.248 574.411 558 574.809C552.231 583.761 545.964 592.464 540.842 601.764C531.194 619.121 528.011 620.265 545.218 633.344C546.561 634.339 547.954 635.284 549.296 636.229C557.651 641.799 565.609 642.247 574.511 636.527C593.26 624.492 612.308 612.904 631.504 601.615C642.843 594.951 654.182 587.491 666.516 583.463C678.75 579.484 692.228 579.235 705.158 577.545C716.199 576.102 727.24 574.66 738.33 573.566C748.177 572.621 758.074 571.527 767.97 571.577C786.72 571.726 805.469 572.621 824.168 573.417C826.854 573.516 829.44 575.307 832.175 575.754C839.585 577.047 846.996 578.291 854.455 579.037C855.848 579.186 858.136 577.395 858.782 575.953C863.009 567.001 867.535 558.049 870.817 548.7C874.896 537.062 878.178 525.126 881.112 513.141C883.549 503.045 885.24 492.75 886.782 482.456C887.577 477.134 884.394 473.653 879.57 471.365C872.309 467.934 864.999 464.403 857.937 460.524C847.443 454.804 841.674 456.495 833.617 465.497C819.145 481.66 806.066 498.967 784.929 508.565C775.58 512.793 767.871 518.512 756.731 520.253C748.525 521.546 741.363 527.563 731.268 525.226C724.803 523.734 717.343 526.618 708.391 527.762L708.49 527.712ZM1552.95 767.921C1561.06 769.761 1565.13 767.374 1569.01 762.45C1571.25 759.566 1575.53 757.775 1579.26 756.582C1588.76 753.498 1598.45 751.161 1608.05 748.326C1614.62 746.387 1615.51 743.85 1611.48 738.678C1604.82 730.025 1597.96 721.471 1591.09 712.966C1589.95 711.574 1588.26 710.032 1586.62 709.684C1571.1 706.203 1562.6 694.963 1555.09 682.232C1552.7 678.203 1549.97 673.877 1546.24 671.34C1536.59 664.825 1526.34 659.205 1516.25 653.387C1514.66 652.492 1512.37 651.348 1510.98 651.845C1502.17 655.277 1498.19 648.811 1494.17 643.54C1490.14 638.318 1485.31 635.632 1479 633.892C1472.23 632.051 1466.02 628.222 1459.55 625.387C1456.12 623.846 1452.74 622.005 1449.16 621.16C1441.4 619.32 1433.44 618.325 1425.73 616.485C1411.91 613.153 1398.08 609.572 1384.36 605.942C1371.52 602.51 1359.54 600.322 1349.54 613.103C1346.71 616.684 1343.72 619.27 1343.13 624.094C1341.44 637.721 1339.94 651.447 1337.31 664.925C1334.77 677.905 1331.04 690.636 1327.61 703.418C1325.12 712.618 1322.04 721.62 1319.6 730.771C1317.47 738.827 1319.01 740.568 1326.82 743.005C1337.46 746.337 1347.75 750.912 1358.54 753.797C1374.06 757.925 1389.73 761.456 1405.54 764.29C1416.28 766.23 1427.62 765.335 1438.12 767.971C1466.66 775.182 1495.86 770.905 1524.55 774.486C1525.65 774.635 1526.84 774.088 1528.03 773.789C1536.99 771.75 1545.94 769.661 1553.1 768.02L1552.95 767.921ZM592.613 360.81C592.613 360.81 592.613 361.059 592.613 361.158C594.752 361.158 596.94 361.456 599.029 361.158C607.135 359.815 615.192 358.423 618.226 348.974C624.79 328.583 636.428 311.077 650.552 295.312C665.919 278.204 681.436 261.593 700.981 248.365C713.861 239.661 724.852 228.67 740.568 224.642C745.989 223.25 751.111 220.365 756.084 217.63C762.848 213.95 763.345 212.259 757.875 207.236C748.276 198.483 738.429 189.978 728.184 181.972C714.16 171.03 700.533 159.045 685.116 150.491C668.406 141.241 652.392 130.399 633.593 124.729C625.238 122.193 618.275 115.777 612.606 127.564C612.506 127.763 612.208 127.813 612.059 127.962C602.659 135.173 593.16 142.285 583.811 149.596C575.953 155.713 567.697 161.432 560.685 168.444C554.518 174.611 550.042 182.369 544.572 189.232C525.624 212.955 506.676 236.677 487.578 260.3C481.212 268.208 480.964 272.783 487.976 278.552C496.381 285.465 504.786 292.527 513.787 298.545C534.377 312.221 547.854 331.965 560.536 352.355C565.26 359.964 569.886 363.247 579.086 362.252C583.562 361.755 588.088 361.357 592.564 360.86L592.613 360.81ZM1896.85 630.211C1886.56 631.305 1885.91 631.007 1879.05 623.199C1877.8 621.757 1876.36 620.513 1874.92 619.27C1859.55 606.688 1852.29 580.877 1858.9 562.277C1863.18 550.192 1859.95 542.732 1848.31 537.062C1838.91 532.487 1829.61 527.762 1820.46 522.839C1816.33 520.601 1814 521.148 1812.4 525.823C1806.83 542.234 1801.56 558.746 1795.15 574.859C1788.38 591.967 1784.45 610.467 1771.08 624.492C1766.85 628.918 1763.57 634.339 1759.29 638.716C1746.41 651.696 1741.63 670.942 1725.72 681.585C1724.13 682.629 1722.94 685.116 1722.69 687.056C1722.49 688.796 1723.28 691.233 1724.53 692.576C1730.99 699.688 1738.25 706.153 1744.22 713.613C1750.74 721.769 1757.75 728.682 1767.69 732.611C1775.5 735.694 1784.01 738.429 1790.27 743.602C1802.71 753.896 1818.77 752.802 1832.5 759.267C1848.01 766.528 1866.76 762.351 1882.93 769.463C1883.32 769.662 1883.87 769.711 1884.32 769.661C1905.06 767.324 1925.84 776.375 1946.53 769.313C1947.58 768.965 1949.02 768.866 1950.06 769.313C1964.93 775.331 1978.36 765.932 1992.64 765.285C1998.9 764.987 2001.04 759.566 1997.36 754.294C1989.9 743.602 1986.07 731.566 1982.19 719.382C1980.5 714.011 1978.06 708.341 1974.38 704.263C1963.54 692.278 1956.98 678.502 1952.65 663.134C1951.26 658.111 1947.78 653.536 1944.64 649.159C1941.66 645.032 1937.43 641.749 1934.65 637.472C1931.51 632.598 1927.88 630.858 1922.11 631.604C1917.54 632.201 1912.76 631.703 1908.09 631.455C1904.31 631.256 1900.53 630.659 1896.8 630.211H1896.85ZM1056.87 847.145C1057.31 847.195 1057.71 847.294 1058.11 847.344C1056.02 858.434 1054.23 869.574 1051.84 880.565C1049.21 892.6 1046.12 904.487 1042.89 916.373C1041.4 921.793 1040.06 927.761 1036.87 932.188C1023.6 950.539 1011.61 969.935 994.85 985.6C988.236 991.817 987.987 996.591 992.861 1002.26C997.337 1007.43 1001.76 1012.65 1006.39 1017.68C1014.94 1026.98 1025.98 1034.14 1029.56 1047.47C1030.36 1050.4 1033.39 1052.84 1035.68 1055.28C1046.62 1066.86 1046.47 1066.37 1060.8 1060.4C1076.21 1053.93 1086.71 1041.4 1099.14 1031.25C1112.67 1020.16 1125.55 1008.28 1139.07 997.188C1146.68 990.971 1153.15 984.158 1151.06 973.814C1148.08 958.844 1145.94 943.129 1139.62 929.502C1130.72 910.206 1136.29 889.616 1130.77 869.972C1127.69 858.931 1133.16 845.255 1135.49 832.921C1137.48 822.428 1140.27 812.083 1143.05 801.789C1146.49 789.057 1146.29 775.232 1155.29 764.191C1157.13 761.953 1157.87 757.726 1157.33 754.742C1153.35 731.517 1142.85 711.176 1129.13 692.278C1123.91 685.066 1117.89 677.706 1115.25 669.45C1110.53 654.531 1101.18 642.545 1093.62 629.416C1091.18 625.238 1087.5 624.442 1084.17 627.973C1076.31 636.229 1068.11 644.286 1061.34 653.436C1052.49 665.422 1045.08 678.502 1036.78 690.935C1030.46 700.384 1031.01 705.109 1038.62 713.663C1042.3 717.79 1046.32 722.863 1047.17 727.986C1049.8 743.403 1050.9 759.019 1052.64 774.585C1053.98 786.521 1055.47 798.457 1056.67 810.442C1057.41 817.753 1058.11 825.113 1058.21 832.424C1058.31 837.397 1057.31 842.321 1056.77 847.294L1056.87 847.145ZM1790.22 382.792C1788.88 377.818 1787.89 372.746 1786.15 367.922C1783.06 359.218 1779.58 350.664 1776.3 342.061C1775.11 338.977 1774.31 335.645 1772.67 332.81C1765.71 320.676 1758.99 308.342 1751.18 296.754C1739.3 279.149 1735.82 257.117 1721.49 240.954C1714.48 233.047 1707.67 224.94 1699.91 217.829C1692.4 210.916 1683.4 205.595 1680.41 194.902C1679.92 193.161 1678.47 191.62 1677.23 190.227C1666.34 178.043 1655.1 166.107 1644.56 153.624C1636.35 143.926 1633.67 143.727 1623.97 152.281C1611.73 163.123 1599.15 173.567 1586.42 183.812C1576.82 191.57 1566.73 198.682 1556.98 206.241C1544.1 216.337 1531.32 226.582 1518.53 236.777C1515.55 239.164 1512.77 241.7 1509.88 244.137C1506.5 247.022 1503.02 249.807 1499.69 252.791C1497.99 254.283 1495.01 256.521 1495.36 257.515C1496.06 259.554 1498.34 261.345 1500.38 262.638C1504.16 265.025 1508.39 266.666 1512.12 269.103C1522.56 276.066 1532.61 283.625 1543.2 290.339C1557.18 299.191 1572.64 305.706 1582.94 319.781C1595.27 336.59 1611.09 350.764 1620.09 370.11C1622.43 375.133 1625.81 381.051 1630.33 383.438C1643.91 390.649 1658.38 396.22 1672.36 402.735C1678.28 405.52 1684.04 408.802 1689.47 412.383C1696.13 416.859 1702.4 421.981 1708.91 426.656C1713.14 429.69 1717.76 432.276 1721.79 435.558C1730.99 443.068 1736.11 442.272 1743.72 432.723C1747.65 427.8 1752.73 423.771 1757.25 419.345C1758.74 417.853 1760.88 416.56 1761.58 414.72C1764.66 406.265 1771.13 402.237 1779.13 399.452C1786.69 396.866 1791.17 391.793 1790.27 382.742L1790.22 382.792ZM1535.84 584.457C1528.23 584.805 1521.97 582.617 1515.9 577.793C1511.42 574.212 1505.55 572.223 1500.13 569.886C1492.97 566.802 1484.97 565.111 1478.45 561.033C1461.99 550.739 1446.57 539.947 1437.87 520.551C1432 507.372 1421.36 496.232 1418.97 481.163C1418.17 476.14 1417.78 471.017 1417.18 465.895C1416.83 462.861 1416.38 459.827 1416.14 456.794C1415.79 452.119 1415.34 447.394 1415.34 442.719C1415.34 438.244 1416.14 433.718 1416.14 429.192C1416.14 421.384 1413.05 418.699 1405.34 420.34C1396.54 422.23 1387.64 424.219 1379.18 427.352C1365.41 432.425 1351.93 438.393 1338.35 444.062C1332.48 446.499 1331.44 451.273 1332.44 457.042C1333.28 462.165 1334.33 467.387 1334.18 472.559C1333.93 481.561 1336.81 489.17 1341.14 496.878C1343.67 501.354 1345.81 507.123 1345.27 512.047C1343.82 525.524 1343.58 538.504 1348.65 551.435C1350.04 554.966 1349.74 559.442 1349.34 563.42C1348.7 569.786 1347.31 576.102 1346.26 582.468C1345.22 588.834 1347.45 590.724 1353.67 590.027C1364.61 588.784 1375.65 587.143 1386.64 587.193C1396.54 587.193 1406.49 588.685 1416.23 590.525C1426.88 592.514 1437.12 596.592 1447.77 598.184C1465.07 600.72 1480.74 607.782 1496.7 614.048C1501.97 616.137 1507.34 618.176 1512.27 620.961C1524.2 627.675 1536.14 634.488 1547.73 641.849C1557.08 647.767 1566.28 654.133 1574.93 661.046C1581.55 666.367 1587.41 672.683 1593.23 678.949C1596.22 682.182 1598.65 685.962 1600.94 689.791C1606.76 699.489 1611.78 709.734 1618.25 718.984C1621.93 724.206 1627.4 730.074 1634.81 728.135C1643.16 725.947 1651.27 722.366 1658.98 718.437C1665.05 715.354 1670.27 710.629 1676.09 706.949C1682.95 702.622 1686.33 696.405 1683.85 688.796C1681.16 680.59 1677.13 672.782 1673.85 664.726C1672.61 661.692 1671.36 658.559 1670.82 655.376C1669.77 649.508 1669.62 643.54 1668.43 637.721C1667.04 630.758 1663.31 623.895 1663.6 617.082C1664.15 603.604 1666.49 590.226 1668.68 576.848C1670.82 563.968 1674.89 551.335 1675.94 538.405C1677.08 523.585 1683.9 511.002 1689.56 498.171C1693.89 488.424 1702 480.268 1708.61 471.564C1715.77 462.165 1715.08 455.451 1705.38 448.389C1700.21 444.609 1694.59 441.426 1689.02 438.194C1681.86 434.016 1674.4 430.386 1667.48 425.86C1661.57 421.981 1656.39 416.908 1650.52 412.93C1648.24 411.388 1644.26 410.145 1642.27 411.189C1640.28 412.233 1638.69 416.361 1638.99 418.947C1639.88 426.706 1641.37 434.464 1643.41 441.974C1646.5 452.964 1651.17 463.806 1648.49 475.444C1647.09 481.61 1643.81 487.28 1641.82 493.347C1639.29 501.006 1637.2 508.814 1634.96 516.622C1631.33 529.204 1622.43 537.957 1614.22 547.606C1606.76 556.358 1598.36 562.326 1588.11 566.603C1584.38 568.145 1580.5 569.786 1577.42 572.323C1565.13 582.369 1549.82 581.225 1535.74 584.607L1535.84 584.457ZM401.69 463.756C399.303 470.023 397.96 478.179 393.584 484.147C388.411 491.209 380.703 496.381 373.939 502.2C372.994 503.045 371.204 503.294 369.861 503.244C359.716 502.747 349.471 502.846 339.475 501.354C327.39 499.514 314.956 498.221 304.662 489.767C302.871 488.324 297.5 489.916 294.516 491.507C290.239 493.795 286.609 497.326 282.879 500.558C281.337 501.901 280.044 503.692 279 505.482C275.618 511.4 272.733 517.617 269.003 523.336C266.567 527.066 262.339 529.602 260.101 533.432C250.105 550.391 240.407 567.548 230.809 584.756C217.729 608.18 209.822 633.742 200.621 658.758C197.886 666.218 199.428 670.445 206.937 672.683C221.807 677.159 236.777 681.486 251.945 684.569C261.842 686.558 272.186 686.608 282.382 687.006C302.125 687.752 321.919 688.2 341.663 688.697C342.608 688.697 343.553 688.498 344.498 688.299C358.373 685.414 372.248 682.48 386.173 679.546C392.887 678.154 400.099 677.756 406.265 675.07C423.025 667.809 439.735 660.648 458.236 659.205C459.529 659.106 460.922 658.211 462.065 657.415C472.261 650.453 482.157 643.092 492.601 636.577C497.923 633.245 501.006 630.609 496.431 624.492C495.436 623.149 495.038 620.663 495.486 619.022C498.867 607.036 492.9 597.885 486.782 588.585C480.118 578.489 471.614 568.991 467.586 557.85C458.485 532.636 450.527 506.875 444.311 480.815C439.586 461.071 438.144 440.482 435.409 420.29C434.414 412.88 432.624 411.836 425.611 415.168C417.256 419.097 408.951 423.175 400.447 426.855C395.573 428.944 394.23 431.828 395.623 437C397.861 445.206 399.452 453.611 401.74 463.707L401.69 463.756ZM652.044 107.124C652.044 108.019 651.994 108.865 651.944 109.76C656.52 111.998 661.095 114.186 665.571 116.523C676.214 122.094 687.155 127.216 697.35 133.532C708.838 140.644 719.929 148.502 730.621 156.707C742.607 165.908 754.294 175.556 765.484 185.701C771.8 191.421 776.624 199.726 785.924 200.223C801.988 201.019 818.101 200.621 834.214 200.671C838.243 200.671 842.271 200.273 846.25 200.671C854.008 201.516 861.716 202.561 869.375 203.904C881.062 205.992 892.65 208.33 904.238 210.816C914.184 212.955 923.982 216.934 933.978 217.381C946.809 217.978 957.352 222.901 967.647 229.466C974.261 233.644 980.478 238.468 987.341 242.148C993.508 245.43 999.177 244.336 1003.31 237.772C1006.34 232.947 1009.87 228.422 1013.65 224.145C1015.79 221.758 1018.62 218.823 1021.46 218.426C1030.36 217.282 1034.19 211.015 1038.22 204.401C1039.76 201.865 1041.7 198.433 1044.14 197.787C1057.51 194.156 1066.17 184.309 1076.01 175.705C1083.23 169.389 1092.13 164.963 1100.18 159.592C1103.57 157.304 1106.75 154.718 1109.98 152.231C1107.4 149.049 1104.81 145.866 1102.12 142.782C1101.53 142.136 1100.43 141.937 1099.64 141.39C1089.39 134.129 1079.64 126.122 1068.9 119.756C1055.67 111.948 1041.65 105.383 1027.92 98.4705C1021.61 95.2877 1015.19 92.3534 1008.63 89.7176C996.392 84.7444 984.059 80.0197 971.725 75.3449C970.531 74.8973 968.94 75.7925 967.498 75.693C956.954 74.947 946.411 74.201 935.917 73.2064C930.745 72.7091 925.672 71.3663 920.55 71.0181C910.206 70.3716 899.762 70.5208 889.417 69.6256C879.968 68.7802 870.618 66.0449 861.219 65.8957C849.134 65.6968 836.95 66.8406 824.914 68.1834C813.177 69.4764 801.54 71.7144 789.853 73.455C785.178 74.1513 780.404 75.146 775.729 75.0465C760.063 74.7481 745.044 76.7871 731.019 84.446C727.14 86.5347 722.465 87.5791 718.089 88.1262C706.302 89.6181 694.466 90.4139 682.729 92.0053C679.745 92.4032 676.114 93.9946 674.423 96.2823C670.793 101.156 666.218 103.096 660.548 103.991C657.614 104.438 654.879 106.08 652.044 107.223V107.124ZM1055.38 542.781C1057.71 549.247 1058.36 554.618 1061.24 558.298C1067.01 565.758 1073.43 573.019 1080.64 579.086C1089.99 586.944 1098.69 587.839 1106.75 578.39C1115.6 567.996 1125.45 558.497 1138.33 552.529C1141.61 550.987 1143.75 546.362 1145.64 542.781C1148.23 537.908 1149.12 531.791 1152.5 527.712C1158.77 520.153 1160.01 512.196 1158.42 503.045C1157.92 500.061 1157.82 496.928 1158.22 493.944C1159.17 486.981 1160.66 480.118 1161.6 473.156C1162.6 465.845 1162.9 458.485 1163.89 451.174C1164.79 444.609 1166.18 438.144 1167.27 431.579C1168.91 421.583 1167.42 410.692 1173.84 402.038C1179.11 394.877 1181.15 386.92 1183.59 378.614C1186.12 369.812 1189.9 361.059 1194.83 353.4C1202.04 342.16 1214.27 334.352 1217.5 320.278C1217.75 319.184 1218.7 318.189 1219.49 317.344C1226.01 310.232 1232.27 302.822 1239.19 296.158C1244.31 291.234 1244.91 286.907 1240.53 281.337C1227.85 265.174 1215.36 248.912 1202.73 232.699C1201.44 231.058 1199.65 229.765 1198.11 228.273C1195.07 225.289 1191.99 222.404 1189.06 219.321C1182.09 211.96 1175.48 204.202 1168.22 197.14C1159.52 188.735 1150.41 180.828 1141.21 172.97C1134.1 166.853 1131.17 167.052 1124.01 172.572C1122.36 173.865 1120.18 174.412 1118.34 175.457C1113.02 178.49 1107.54 181.375 1102.42 184.707C1096.65 188.487 1091.23 192.714 1085.56 196.692C1075.07 204.053 1063.58 210.319 1054.23 218.923C1041.85 230.312 1031.11 243.491 1019.77 255.974C1015.54 260.599 1016.19 264.478 1021.41 268.407C1025.04 271.142 1029.32 274.872 1030.41 278.9C1033.74 291.035 1040.5 300.683 1048.26 310.232C1055.23 318.786 1060.7 327.837 1062.29 339.872C1064.03 352.952 1070.39 365.385 1074.42 378.216C1075.67 382.195 1077.31 386.87 1076.36 390.6C1074.27 398.855 1075.07 406.514 1077.41 414.422C1078.4 417.754 1078.1 421.484 1078.25 425.015C1078.45 430.237 1077.56 435.707 1078.85 440.631C1081.43 450.527 1079.89 459.927 1077.85 469.575C1076.66 475.095 1074.87 481.262 1076.21 486.434C1079.84 500.36 1071.54 509.858 1065.82 520.601C1061.89 527.961 1058.66 535.719 1055.38 542.632V542.781ZM1455.72 253.039V250.901C1471.14 254.233 1481.04 248.215 1487.85 234.539C1491.13 227.924 1496.35 221.857 1501.97 216.934C1511.02 209.026 1521.12 202.312 1530.82 195.151C1533.9 192.913 1537.13 190.923 1540.22 188.685C1547.78 183.364 1555.29 177.844 1562.9 172.622C1568.52 168.743 1573.94 163.023 1580.1 161.88C1594.92 159.144 1604.32 150.342 1611.53 138.356C1612.73 136.367 1612.13 130.896 1610.59 129.951C1603.73 125.823 1596.52 121.895 1588.96 119.557C1572.2 114.385 1555.09 110.357 1538.18 105.483C1532.06 103.742 1526.44 99.9128 1520.23 98.7689C1507.39 96.3818 1494.31 95.6358 1481.48 93.3978C1465.97 90.7123 1450.55 89.2203 1434.74 91.1599C1428.57 91.9058 1421.71 91.2593 1415.84 89.3197C1408.08 86.7336 1400.92 87.3802 1393.41 89.0711C1390.62 89.7176 1387.84 90.8117 1385.05 90.8117C1368.79 90.9609 1353.02 93.9449 1337.51 98.8187C1334.97 99.6144 1331.89 98.8187 1329.05 98.6197C1322.49 98.2716 1315.68 96.5807 1309.31 97.7246C1294.94 100.211 1279.27 97.824 1266.59 107.721C1265.59 108.517 1263.85 108.367 1262.46 108.666C1248.44 111.351 1234.61 114.286 1223.07 123.784C1219.89 126.371 1215.46 127.614 1211.44 129.006C1195.12 134.626 1178.71 139.997 1162.35 145.617C1155.04 148.104 1154.19 151.088 1159.86 156.061C1172.99 167.698 1186.92 178.441 1199.7 190.476C1210.89 200.969 1221.23 212.458 1231.33 224.045C1236.9 230.411 1241.37 237.772 1245.85 245.032C1250.48 252.492 1254.21 260.499 1258.73 268.009C1262.41 274.176 1266.54 274.574 1273 270.694C1276.64 268.506 1280.51 266.517 1284.54 265.174C1297.97 260.748 1311.5 256.67 1324.98 252.443C1330.89 250.553 1336.61 247.469 1342.58 246.773C1361.18 244.585 1379.88 243.143 1398.53 241.75C1401.71 241.501 1405.04 242.844 1408.33 243.54C1424.09 246.723 1439.86 249.857 1455.62 253.039H1455.72ZM1344.32 940.393C1345.27 929.601 1344.97 917.964 1347.6 906.973C1350.64 894.192 1353.82 880.366 1361.18 869.972C1373.32 852.814 1387.69 836.8 1403.3 822.726C1418.42 809.149 1436.82 800.396 1458.61 802.485C1466.81 803.281 1475.17 803.082 1483.47 802.982C1500.28 802.783 1512.96 810.691 1521.47 824.218C1526.44 832.126 1529.08 841.575 1532.31 850.477C1536.14 860.97 1540.52 871.414 1542.7 882.256C1544.1 889.169 1543.5 896.281 1548.57 902.199C1550.02 903.84 1550.31 907.272 1549.87 909.659C1548.32 917.765 1546.53 925.872 1544.3 933.829C1542.65 939.498 1538.63 944.77 1538.23 950.39C1537.33 962.873 1531.86 973.565 1527.64 984.854C1523.91 994.9 1518.29 1002.81 1509.78 1009.12C1504.06 1013.35 1499.59 1018.47 1501.63 1026.68C1502.67 1030.96 1500.53 1033.94 1496.35 1035.53C1488.6 1038.52 1480.89 1041.7 1473.13 1044.68C1454.33 1051.99 1440.11 1068.16 1419.42 1072.04C1414.64 1072.93 1415.04 1077.85 1417.98 1080.59C1432.6 1094.32 1444.48 1111.52 1464.82 1118.14C1466.96 1118.83 1469.25 1120.23 1470.64 1121.97C1478.65 1131.67 1490.29 1135.2 1501.13 1139.82C1503.91 1141.01 1508.34 1140.17 1511.32 1138.73C1541.16 1124.65 1562.85 1100.93 1584.18 1076.76C1590 1070.2 1595.87 1063.68 1602.13 1057.56C1611.83 1048.11 1622.87 1039.66 1623.87 1024.49C1623.97 1022.75 1625.26 1020.96 1626.31 1019.42C1637.79 1002.71 1647.04 984.805 1651.52 965.061C1653.31 957.104 1653.81 947.505 1650.97 940.195C1648.49 933.779 1647.44 928.756 1650.13 922.838C1657.24 907.222 1655.35 890.661 1654.7 874.398C1654.3 864.949 1652.71 855.45 1650.43 846.25C1648.59 838.889 1644.86 831.976 1641.87 824.914C1639.68 819.792 1635.26 814.62 1635.51 809.647C1636.15 794.876 1628.99 782.045 1626.9 768.02C1626.31 763.992 1623.32 762.45 1619.39 764.141C1610.89 767.772 1602.33 771.352 1593.98 775.331C1587.36 778.514 1580.9 778.862 1573.84 777.022C1571.3 776.326 1568.22 777.32 1565.48 777.917C1560.31 779.011 1555.19 781.647 1550.16 781.349C1540.67 780.802 1531.42 778.763 1523.96 787.416C1522.41 789.206 1518.73 789.803 1516.05 789.853C1492.33 790.45 1468.5 791.991 1444.83 790.798C1424.54 789.803 1404 788.908 1384.46 781.05C1373.76 776.773 1361.98 773.541 1350.59 773.193C1341.74 772.894 1335.17 772.049 1329.35 764.987C1325.52 760.312 1321.54 761.605 1319.36 767.374C1314.58 780.056 1310.06 792.787 1305.13 805.37C1303.79 808.851 1301.55 812.083 1299.61 815.316C1295.48 822.229 1291.06 828.943 1287.18 835.955C1285.39 839.237 1285.29 843.564 1283.25 846.598C1272.91 861.866 1261.96 876.736 1248.29 889.318C1241.77 895.336 1239.24 902.398 1240.73 911.151C1242.47 921.595 1244.81 932.088 1245.25 942.631C1245.95 959.491 1245.75 976.4 1245.15 993.259C1244.56 1010.12 1242.62 1026.93 1242.12 1043.79C1242.02 1047.57 1244.66 1053.78 1247.59 1054.98C1263.61 1061.44 1280.07 1066.71 1296.43 1072.33C1297.47 1072.68 1298.82 1072.53 1299.96 1072.33C1310.25 1070.39 1319.95 1067.06 1331.24 1068.7C1341.93 1070.25 1353.32 1067.11 1364.36 1065.92C1369.78 1065.32 1373.91 1060.05 1371.87 1055.28C1365.06 1039.11 1358.05 1023 1350.54 1007.18C1347.31 1000.42 1343.48 994.304 1346.51 986.346C1347.45 983.86 1346.96 980.727 1346.81 977.892C1346.06 965.558 1345.17 953.225 1344.27 940.294L1344.32 940.393ZM874.647 753.15C875.343 753.051 876.089 752.902 876.785 752.802C875.393 744.397 874.249 735.943 872.558 727.637C871.215 721.222 866.59 718.487 860.274 719.531C844.31 722.167 828.495 725.698 812.481 727.737C800.147 729.328 787.565 729.478 775.082 729.776C769.661 729.925 764.191 728.682 758.72 728.383C743.005 727.439 726.891 732.412 711.574 725.002C709.982 724.256 707.744 724.256 705.954 724.654C690.587 727.986 677.457 719.183 663.333 716.199C651.795 713.762 641.302 706.451 630.41 701.08C623.845 697.848 617.38 694.416 611.014 690.786C601.366 685.265 592.066 678.949 582.17 673.926C570.88 668.207 570.632 668.704 564.316 679.944C563.52 681.386 562.575 682.779 561.531 684.121C554.916 692.725 547.456 700.832 541.787 710.032C535.073 720.874 529.503 732.511 524.181 744.099C519.258 754.891 514.633 765.882 511.151 777.221C506.526 792.29 498.669 806.812 500.956 823.472C501.205 825.263 500.956 827.5 500.061 829.042C492.651 842.271 495.585 857.091 494.292 871.017C491.706 898.568 494.64 926.07 503.493 952.528C505.88 959.59 509.112 966.404 511.997 973.316C513.887 977.892 517.07 982.268 517.666 986.993C519.556 1001.76 523.784 1015.69 530.547 1028.87C540.444 1048.11 550.241 1067.46 560.536 1086.51C562.078 1089.34 566.255 1092.72 568.99 1092.58C577.843 1092.08 586.646 1090.19 595.398 1088.55C601.167 1087.45 606.986 1086.16 612.606 1084.42C615.093 1083.62 617.878 1081.98 619.22 1079.89C622.751 1074.57 626.631 1070.74 633.643 1071.34C635.881 1071.54 638.367 1070.59 640.506 1069.65C649.408 1065.82 657.912 1060.6 667.162 1058.16C687.901 1052.59 705.656 1040.95 724.554 1031.7C726.991 1030.51 728.98 1028.12 730.969 1026.08C734.948 1022 734.749 1017.68 730.273 1014.5C724.305 1010.27 717.89 1006.69 711.623 1002.86C707.794 1000.52 703.069 999.028 700.284 995.845C692.029 986.396 684.469 976.3 676.811 966.354C675.219 964.315 674.274 961.778 673.13 959.441C668.953 950.937 664.527 942.532 660.846 933.829C658.708 928.756 656.918 923.136 656.669 917.715C656.271 908.067 655.774 898.767 650.552 890.213C649.159 887.876 648.563 884.792 648.413 882.007C647.966 872.807 647.518 863.557 647.767 854.306C648.065 840.331 648.563 826.357 649.657 812.432C650.95 796.119 656.619 780.951 668.306 769.612C679.496 758.77 693.023 750.365 704.81 740.12C713.066 732.959 722.217 731.865 732.113 732.909C736.092 733.357 740.07 734.351 743.8 735.843C753.001 739.474 762.55 742.607 770.954 747.63C784.183 755.637 792.19 768.617 798.307 782.443C805.966 799.799 812.929 817.454 820.14 835.01C820.687 836.303 820.488 837.845 820.687 839.237C821.731 846.946 822.229 854.853 824.019 862.413C828.793 882.256 827.699 901.95 824.168 921.744C823.074 927.96 822.577 934.624 819.941 940.195C815.913 948.699 810.343 956.507 805.22 964.464C799.203 973.764 792.936 982.965 786.72 992.115C784.581 995.249 781.945 998.083 780.105 1001.37C777.917 1005.34 779.608 1008.78 783.835 1009.52C791.444 1010.86 799.202 1011.96 806.961 1012.21C815.913 1012.51 824.914 1011.41 833.916 1011.56C853.113 1011.91 872.26 1012.65 891.407 1013.2C892.103 1013.2 892.849 1013.1 893.545 1013.05C899.961 1012.41 903.343 1008.97 903.74 1002.41C904.188 994.353 904.486 986.197 905.68 978.24C906.874 970.332 908.863 962.524 910.952 954.766C914.582 941.388 918.362 928.557 909.708 915.08C897.076 895.485 893.545 872.707 889.766 850.179C886.433 830.534 883.499 810.79 880.416 791.096C878.427 778.464 876.537 765.782 874.597 753.15H874.647ZM525.126 1108.84C525.176 1109.29 525.275 1109.73 525.325 1110.13C528.707 1109.09 532.139 1108.09 535.52 1106.95C544.671 1103.86 545.517 1101.23 540.046 1093.27C536.565 1088.2 532.636 1083.28 530 1077.75C524.43 1066.22 519.606 1054.33 514.334 1042.64C509.411 1031.85 503.642 1021.41 499.464 1010.32C495.287 999.227 493.099 987.49 489.319 976.251C484.594 962.127 478.527 948.599 475.941 933.58C471.863 909.907 462.961 886.732 473.205 862.612C473.753 861.368 473.404 859.777 473.603 858.384C475.095 847.095 475.692 835.607 478.378 824.616C482.356 808.503 487.678 792.737 492.701 776.873C496.281 765.583 500.011 754.394 504.239 743.303C506.128 738.28 510.754 733.953 511.599 728.881C513.19 719.631 518.512 713.165 523.833 706.004C532.636 694.267 540.444 681.734 548.302 669.301C551.136 664.775 550.042 660.051 546.163 656.321C542.234 652.541 538.206 648.811 534.078 645.231C524.53 636.975 519.755 637.423 509.958 645.728C501.304 653.088 492.551 660.449 483.102 666.665C471.614 674.175 459.38 680.541 447.394 687.155C440.78 690.786 433.668 693.62 427.253 697.549C419.743 702.125 411.985 704.661 403.033 704.661C394.777 704.661 386.522 706.103 378.216 706.849C373.74 707.247 369.264 707.645 364.739 707.695C354.792 707.794 344.846 707.546 334.849 707.695C311.823 708.142 288.847 710.728 265.821 707.446C255.924 706.054 245.928 705.705 236.031 704.213C231.058 703.467 226.283 701.329 221.559 699.588C217.331 698.047 213.402 695.46 209.076 694.665C206.987 694.317 202.611 696.853 202.312 698.544C200.87 707.695 199.676 716.945 199.776 726.195C199.925 741.612 200.82 757.029 201.865 772.397C202.859 787.068 204.003 801.739 205.943 816.261C206.44 819.941 209.573 823.87 212.557 826.406C216.237 829.54 217.481 832.722 214.546 836.104C209.921 841.426 210.767 846.349 213.9 851.77C214.944 853.56 215.64 855.699 216.038 857.788C220.464 878.725 228.969 897.872 240.258 915.975C252.492 935.669 263.881 955.86 275.966 975.604C281.785 985.103 287.703 994.751 294.914 1003.16C310.033 1020.91 330.324 1032.3 349.172 1045.48C361.904 1054.43 373.392 1065.17 385.527 1074.97C388.411 1077.31 391.445 1079.69 394.777 1081.09C404.376 1085.02 414.223 1088.35 423.92 1092.03C428.347 1093.72 432.574 1096.06 437.149 1097.3C449.98 1100.73 462.811 1104.21 475.792 1106.85C484.743 1108.69 493.944 1109.68 503.095 1110.08C510.356 1110.43 517.716 1109.29 525.027 1108.79L525.126 1108.84ZM1532.61 1154.29C1535.39 1155.74 1536.54 1156.58 1537.83 1156.93C1546.53 1159.27 1555.24 1161.9 1564.04 1163.74C1574.48 1165.88 1585.03 1167.72 1595.62 1168.82C1600.69 1169.36 1606.01 1167.17 1611.14 1167.52C1624.32 1168.42 1637.59 1169.31 1650.62 1171.55C1673.35 1175.48 1695.43 1169.71 1717.81 1168.42C1719.85 1168.32 1721.89 1167.17 1723.88 1166.48C1735.82 1162.45 1747.8 1158.67 1759.59 1154.39C1770.73 1150.36 1782.76 1147.53 1792.51 1141.21C1803.75 1133.9 1818.57 1132.71 1827.13 1121.02C1827.47 1120.52 1828.47 1120.62 1829.11 1120.23C1837.57 1115.4 1846.07 1110.63 1854.48 1105.75C1859.4 1102.87 1864.08 1099.59 1869.1 1096.95C1877.75 1092.43 1886.51 1088.45 1892.37 1079.89C1894.81 1076.36 1899.29 1074.27 1902.82 1071.44C1905.4 1069.4 1908.24 1067.51 1910.38 1065.02C1915.65 1058.91 1920.67 1052.59 1925.6 1046.17C1930.77 1039.41 1934.85 1031.65 1940.91 1025.88C1946.04 1021.01 1949.02 1015.89 1951.11 1009.32C1952.45 1005.2 1955.73 1000.97 1959.31 998.481C1964.24 995.05 1966.92 991.121 1968.17 985.401C1969.46 979.434 1971.5 973.615 1973.39 967.746C1976.77 957.104 1983.38 946.411 1982.94 935.967C1982.19 919.357 1989.95 906.327 1994.92 891.954C2000.54 875.841 2005.57 859.727 2005.02 842.271C2004.72 833.021 2005.52 823.771 2005.86 814.52C2006.01 810.741 2006.56 806.911 2006.36 803.132C2005.71 791.096 1998.45 786.222 1986.92 789.952C1983.29 791.146 1979.8 793.185 1976.12 793.633C1956.68 795.97 1937.18 798.556 1917.69 799.75C1904.51 800.545 1891.18 799.451 1877.95 798.506C1872.13 798.059 1866.36 794.379 1860.69 794.627C1846.72 795.224 1834.04 790.4 1821.06 786.869C1814.74 785.178 1808.43 782.89 1802.56 779.956C1795 776.127 1788.18 770.855 1780.63 767.175C1759.64 756.98 1738.75 746.784 1722.54 729.328C1717.86 724.305 1712.59 719.73 1707.62 714.956C1703.44 710.977 1700.21 712.519 1695.78 715.503C1682.4 724.405 1668.88 733.158 1654.65 740.618C1646.05 745.143 1642.82 748.824 1646.15 758.372C1651.82 774.734 1658.43 790.748 1663.75 807.21C1669.82 825.959 1675.04 844.957 1680.26 863.954C1682.3 871.414 1683.6 879.173 1684.94 886.782C1686.48 895.336 1688.22 903.89 1689.02 912.543C1689.61 919.158 1689.66 926.07 1688.57 932.635C1687.13 940.941 1683.3 948.848 1682.25 957.153C1680.56 970.979 1677.98 984.158 1671.01 996.542C1666.54 1004.5 1663.9 1013.55 1660.32 1022.05C1659.33 1024.44 1658.18 1026.88 1656.49 1028.77C1649.53 1036.58 1642.27 1044.14 1635.26 1051.94C1633.07 1054.38 1631.38 1057.27 1629.74 1060.1C1626.6 1065.57 1624.22 1071.54 1620.49 1076.56C1617.3 1080.89 1612.88 1084.32 1608.8 1087.9C1590.5 1104.11 1572.15 1120.33 1553.75 1136.44C1547.08 1142.26 1540.17 1147.83 1532.56 1154.19L1532.61 1154.29ZM275.27 374.138C277.557 359.119 278.254 344.398 282.183 330.573C287.852 310.729 304.015 298.594 319.83 286.708C328.683 280.094 337.535 273.529 346.039 266.467C349.67 263.483 352.703 262.29 357.577 263.185C363.048 264.179 369.364 264.826 374.387 263.036C394.827 255.625 415.267 255.526 436.055 260.499C441.377 261.792 446.648 263.036 451.92 264.378C457.739 265.87 460.922 263.632 462.016 257.714C465.248 240.407 479.074 228.571 485.688 212.955C486.882 210.12 490.363 208.28 492.502 205.744C498.669 198.582 504.537 191.172 510.853 184.11C518.313 175.854 525.375 167.052 533.929 160.089C546.412 149.944 560.088 141.29 573.168 131.841C577.743 128.509 581.871 124.63 586.347 121.149C591.669 117.021 597.338 113.291 602.46 108.964C605.594 106.328 604.997 103.543 600.919 102.002C596.691 100.41 592.265 99.2165 588.287 97.078C573.964 89.3695 560.635 80.0695 543.925 77.0358C525.723 73.7037 508.068 67.3379 489.866 64.2545C479.621 62.5139 469.028 62.862 458.485 61.0219C438.989 57.5406 418.997 56.6454 399.203 54.7556C397.612 54.6064 395.921 55.2032 394.28 55.3524C390.55 55.7502 386.77 56.2476 383.04 56.4962C362.401 57.9882 341.613 53.8604 321.024 59.2813C311.077 61.8674 300.434 61.7182 290.289 63.7572C282.929 65.2492 275.717 67.885 268.755 70.7695C262.787 73.2561 257.416 78.9754 251.498 79.4727C234.141 80.9149 222.205 93.6465 206.838 98.9679C201.964 100.659 196.991 103.096 193.161 106.477C179.684 118.364 162.824 126.072 151.336 140.544C147.258 145.667 142.036 149.944 137.162 154.42C133.681 157.603 129.703 160.288 126.37 163.62C120.005 170.085 106.378 171.03 109.81 185.204C110.158 186.547 108.268 188.536 107.223 190.128C97.6748 204.898 87.778 219.42 78.6272 234.439C73.9523 242.098 70.5705 250.503 66.6416 258.56C64.3042 263.334 62.0165 268.158 59.7785 273.032C57.7892 277.259 55.601 281.387 54.109 285.813C48.8871 301.28 45.4555 317.145 37.8962 332.015C30.9336 345.791 26.1096 360.909 32.2267 377.172C33.8679 381.548 32.7737 387.019 32.6743 391.943C32.3759 405.42 31.8288 418.898 31.6299 432.375C31.5304 438.94 31.232 445.654 32.2764 452.119C33.2213 458.286 36.1058 464.105 37.5978 470.172C41.3775 485.838 41.8251 502.1 52.4678 516.175C61.37 527.961 66.5422 542.483 74.4496 555.065C90.5133 580.628 112.346 601.217 134.129 621.807C146.462 633.494 158.945 645.081 171.478 656.619C175.407 660.25 179.336 659.454 181.275 654.829C183.563 649.408 184.806 643.589 186.248 637.82C187.293 633.693 187.193 629.167 188.685 625.288C192.913 614.446 197.786 603.853 202.362 593.161C204.998 587.043 208.081 581.026 210.021 574.71C213.8 562.326 219.171 551.335 231.207 544.82C233.296 543.677 234.887 541.19 236.23 539.002C241.253 530.647 245.43 521.695 251.1 513.887C254.233 509.61 259.803 507.123 264.179 503.791C266.218 502.249 269.202 500.907 269.899 498.868C272.385 491.308 277.955 486.882 284.072 482.506C292.328 476.587 292.875 471.664 289.046 462.165C284.172 450.08 280.044 437.696 275.767 425.363C275.17 423.622 275.22 421.633 275.22 419.743C275.22 404.326 275.22 388.909 275.22 374.089L275.27 374.138ZM2186.54 341.464C2187.44 341.215 2188.33 340.967 2189.23 340.718C2187.59 336.391 2185.95 332.065 2184.21 327.788C2183.06 324.953 2181.77 322.168 2180.62 319.333C2176.35 308.541 2172.97 297.301 2167.64 287.007C2157.75 267.909 2146.76 249.359 2136.16 230.61C2135.82 230.013 2135.52 229.317 2135.02 228.82C2118.96 212.01 2102.99 195.101 2086.73 178.49C2082.95 174.611 2077.38 172.423 2073.9 168.395C2059.48 151.883 2040.78 140.694 2023.47 127.912C2015.76 122.243 2005.32 120.054 1995.92 116.971C1989.2 114.783 1982.04 113.937 1975.23 112.097C1962.94 108.765 1950.76 105.135 1938.58 101.454C1937.08 101.007 1936.14 99.0176 1934.65 98.4705C1931.27 97.1775 1927.04 94.5417 1924.3 95.586C1916.35 98.5203 1909.98 95.9839 1903.46 92.254C1902.07 91.4582 1900.28 91.1101 1898.69 91.0604C1891.18 90.8117 1883.67 90.9112 1876.16 90.6128C1863.38 90.1155 1850.55 88.5738 1837.77 88.9716C1823.84 89.4192 1809.92 91.1101 1796.19 93.1989C1784.95 94.9395 1774.06 98.57 1762.82 100.41C1751.23 102.35 1739.5 102.996 1727.86 104.488C1717.51 105.831 1707.22 108.815 1696.93 108.715C1688.87 108.666 1682.11 109.71 1675.44 114.186C1672.76 116.026 1668.88 116.225 1665.54 117.021C1663.21 117.618 1660.82 118.015 1658.48 118.513C1659.18 120.9 1659.23 123.834 1660.72 125.625C1666.34 132.388 1672.16 139.052 1678.42 145.219C1692.1 158.697 1706.92 171.13 1719.7 185.353C1728.61 195.25 1737.66 205.246 1743.82 217.729C1750.14 230.61 1759.59 241.949 1767.15 254.233C1771.57 261.444 1775.01 269.252 1778.98 276.762C1781.92 282.382 1785.2 287.802 1787.89 293.522C1793.21 304.811 1799.47 315.852 1803.05 327.688C1807.23 341.464 1808.92 355.936 1811.76 370.11C1812.6 374.387 1815.29 375.879 1819.52 375.63C1832.5 374.835 1845.82 375.63 1858.41 373.044C1875.02 369.563 1890.93 372.149 1907.24 373.442C1918.29 374.287 1927.54 378.266 1937.38 382.941C1964.14 395.623 1979.66 418.947 1996.37 441.327C1997.31 442.57 1997.36 444.46 1997.96 446.002C2002.43 457.938 2006.91 469.923 2011.43 481.859C2012.58 484.942 2014.62 487.976 2014.77 491.109C2015.31 504.985 2018.35 519.208 2010.74 532.387C2009.74 534.128 2009.74 536.565 2009.79 538.654C2010.14 553.922 1999.55 565.36 1995.72 579.186C1995.52 579.832 1994.97 580.429 1994.43 580.877C1982.14 590.873 1974.18 605.643 1959.17 612.705C1954.29 614.993 1954.09 618.077 1957.23 623C1966.53 637.721 1978.36 650.9 1983.63 668.257C1985.97 675.965 1992.49 682.281 1995.67 689.89C2002.08 705.109 2007.46 720.725 2013.37 736.142C2014.92 740.12 2016.31 744.298 2018.7 747.829C2019.99 749.768 2023.52 751.957 2025.41 751.509C2032.92 749.52 2040.53 747.53 2045.65 740.518C2048.39 736.738 2051.87 733.307 2055.55 730.323C2063.85 723.659 2073.25 718.089 2080.86 710.728C2090.71 701.18 2100.01 690.935 2108.11 679.894C2119.75 664.03 2131.04 647.717 2140.64 630.559C2147.65 618.077 2151.78 603.903 2157.2 590.475C2158.34 587.64 2158.94 584.358 2160.63 581.921C2168.84 569.985 2171.32 556.408 2173.02 542.433C2173.41 539.201 2174.36 535.968 2175.45 532.885C2178.68 523.784 2184.3 514.881 2185.05 505.581C2186 493.646 2185.4 481.71 2187.84 469.625C2190.77 455.252 2191.66 440.432 2192.86 425.711C2193.36 419.693 2192.36 413.477 2192.01 407.409C2191.62 400.347 2190.97 393.285 2190.77 386.223C2190.57 378.664 2191.32 371.005 2190.62 363.495C2189.97 356.135 2188.08 348.874 2186.74 341.563L2186.54 341.464ZM187.343 690.835C180.877 687.553 175.904 685.564 171.577 682.679C161.979 676.363 151.684 670.544 143.478 662.687C131.543 651.198 122.442 636.677 109.909 626.034C97.2272 615.192 84.2967 604.848 73.7534 591.868C68.9791 585.999 63.8566 580.429 59.132 574.511C49.086 561.928 38.1946 549.794 29.6406 536.217C24.6673 528.309 23.5732 517.965 20.6887 508.764C19.6941 505.631 18.5502 502.598 17.5058 499.464C15.2679 492.75 13.0796 485.987 10.8417 479.273C2.23794 452.865 5.91815 425.064 1.98927 398.109C0.696225 389.356 2.68553 380.106 3.43152 371.105C4.4759 358.622 7.41012 346.089 6.6144 333.805C5.76895 320.626 10.6427 309.486 15.1187 298.197C19.893 286.112 26.6069 274.822 32.0278 262.936C36.8518 252.343 40.8304 241.352 45.6047 230.709C47.793 225.786 50.9759 221.26 53.7609 216.536C55.4518 213.651 58.3363 210.966 58.6844 207.982C60.3753 193.808 71.0181 185.403 78.7764 175.059C85.54 165.958 91.2095 155.912 98.5699 147.407C104.836 140.196 112.793 134.427 120.204 128.211C126.221 123.188 133.482 119.408 138.505 113.639C154.072 95.7353 174.412 84.5951 193.36 71.1674C208.031 60.7235 224.741 59.7786 240.407 54.2583C251.498 50.3791 261.792 44.262 272.584 39.5374C280.79 35.9567 289.095 32.177 297.749 30.0385C304.761 28.2979 312.42 28.9941 319.731 28.2481C324.605 27.7508 329.429 26.7064 334.253 25.9107C335.645 25.662 337.038 25.0652 338.43 25.0652C350.416 24.916 362.401 24.8663 374.387 24.8166C375.829 24.8166 377.371 25.2642 378.664 24.916C396.767 19.6444 415.018 25.2642 433.22 24.4187C443.316 23.9711 454.058 22.2802 463.707 28.2481C465.447 29.3422 468.381 28.7952 470.719 28.6957C487.28 27.9497 503.692 27.6016 517.467 39.438C519.109 40.8802 522.739 41.3775 524.828 40.6315C530.149 38.7417 534.426 40.4326 539.151 42.4219C553.126 48.3898 567.648 53.1642 581.026 60.1764C590.127 64.901 598.482 71.7641 605.643 79.1743C616.137 90.016 620.265 91.508 634.439 86.7337C647.22 82.4069 660.399 79.3235 673.13 74.9968C677.855 73.4053 682.977 70.5706 686.061 66.8406C692.178 59.4305 699.787 56.5957 708.789 54.9545C722.067 52.5176 735.147 49.0861 748.326 46.0027C764.887 42.1235 781.249 37.1005 798.009 34.5144C814.421 31.9283 831.379 29.9888 847.841 31.1326C858.882 31.9283 869.922 32.6246 880.863 32.0278C895.336 31.2321 908.465 35.7577 921.943 39.239C925.573 40.1839 929.402 41.0791 933.083 40.8802C942.532 40.3829 951.931 39.1396 961.38 38.4433C964.165 38.2444 967 38.9406 969.785 39.239C973.267 39.5872 976.698 39.9353 980.179 40.3829C983.661 40.8305 987.49 40.5321 990.424 42.0738C998.381 46.2016 1005.44 52.2192 1014.99 52.5674C1015.64 52.5674 1016.53 52.9652 1016.88 53.5123C1024.09 64.5032 1038.57 64.7518 1047.07 73.9524C1048.51 75.4941 1051.4 75.693 1053.58 76.5385C1055.77 77.3839 1058.91 77.6823 1060 79.3235C1069.95 93.8454 1088.3 96.2326 1100.53 108.019C1110.23 117.369 1123.06 123.536 1134.85 130.648C1136.99 131.941 1141.11 131.941 1143.4 130.747C1154.04 125.077 1164.24 118.513 1174.88 112.794C1192.44 103.394 1210.19 94.4422 1227.9 85.3909C1229.54 84.5454 1231.78 83.5508 1233.32 83.9984C1250.08 88.7727 1263.31 77.3342 1278.38 74.4994C1288.62 72.6096 1298.87 70.5208 1308.91 67.8353C1312.49 66.8903 1316.17 64.4534 1318.76 61.6684C1325.12 54.8551 1328.06 54.0096 1336.96 57.093C1344.57 59.7289 1351.88 60.3256 1360.38 58.0379C1368.59 55.8 1377.99 57.8887 1386.89 58.1374C1391.57 58.2866 1396.49 59.5299 1400.92 58.5353C1415.64 55.3027 1429.81 56.3968 1444.63 59.3807C1456.72 61.8176 1469.65 60.1267 1482.18 60.0272C1488.79 59.9775 1496.06 57.4909 1501.92 59.4802C1510.38 62.3149 1517.94 65.6968 1527.29 62.9615C1529.82 62.2155 1534.1 65.6968 1536.89 67.9845C1541.11 71.4657 1545.04 74.2508 1551.01 72.7091C1553.25 72.162 1556.03 73.2561 1558.42 74.1016C1567.02 77.2347 1575.38 81.3128 1584.18 83.6502C1597.16 87.032 1609.4 90.9609 1620.34 99.4652C1630.08 107.025 1641.77 109.859 1653.86 103.295C1655.1 102.598 1656.44 102.002 1657.84 101.753C1679.17 98.1224 1697.82 86.9326 1718.16 80.5668C1728.56 77.3342 1739.25 74.947 1749.54 71.5155C1756.65 69.178 1763.27 65.2989 1770.33 62.862C1774.46 61.4695 1779.38 60.3256 1783.41 61.2706C1794.2 63.9064 1804.6 62.4144 1815.24 60.9224C1827.47 59.2315 1839.86 59.0326 1852.14 57.6898C1873.58 55.3524 1894.96 59.1818 1916.44 58.0379C1925.6 57.5406 1935.14 60.823 1944.3 63.3096C1966.92 69.4764 1990.84 70.6203 2012.53 81.0144C2018.55 83.8989 2024.12 86.485 2029.34 90.762C2036.3 96.4315 2044.61 100.41 2051.77 105.831C2062.36 113.788 2072.46 122.442 2082.9 130.648C2085.83 132.935 2089.32 134.626 2092.35 136.814C2096.87 140.146 2101.4 143.479 2105.68 147.109C2115.03 155.116 2124.33 163.173 2133.33 171.577C2136.81 174.81 2139.94 178.789 2142.03 183.016C2144.42 187.84 2147.1 191.023 2152.53 192.614C2155.71 193.51 2160.28 196.692 2160.58 199.229C2163.52 225.139 2178.54 245.082 2191.22 266.567C2204.94 289.842 2215.14 315.155 2219.76 342.21C2221.55 352.455 2225.04 362.65 2225.28 372.945C2226.38 414.77 2224.64 456.595 2218.37 498.022C2217.13 506.178 2213.9 514.036 2211.81 522.093C2207.38 539.002 2204.55 556.508 2198.38 572.77C2190.62 593.409 2180.23 613.054 2171.03 633.096C2169.43 636.527 2167.45 639.909 2166.55 643.49C2162.72 658.907 2155.31 671.539 2143.47 682.679C2134.17 691.482 2127.21 703.07 2120.3 714.11C2116.02 720.973 2111.3 726.245 2103.59 728.632C2102.05 729.129 2100.36 729.776 2099.16 730.82C2087.03 741.016 2075.09 751.459 2062.81 761.505C2059.63 764.091 2055.55 765.633 2051.87 767.523C2045.95 770.507 2039.73 772.994 2034.16 776.525C2032.32 777.718 2031.43 781.299 2031.18 783.885C2030.33 791.693 2029.29 799.551 2029.59 807.359C2029.98 816.311 2032.27 825.213 2032.77 834.165C2033.32 843.862 2032.52 853.61 2032.67 863.358C2032.87 875.443 2033.57 887.478 2033.76 899.563C2033.76 902.746 2033.47 906.227 2032.27 909.161C2025.46 925.921 2017.8 942.333 2011.48 959.242C2004.27 978.538 1998.35 998.332 1991.54 1017.83C1989.85 1022.7 1987.81 1027.82 1984.63 1031.75C1976.27 1042.1 1966.97 1051.69 1958.37 1061.84C1948.97 1072.88 1939.52 1083.87 1930.77 1095.36C1921.37 1107.69 1910.13 1117.44 1896.7 1125.15C1888.1 1130.07 1880.34 1136.44 1872.18 1142.16C1871.79 1142.46 1871.49 1142.85 1871.09 1143.05C1860 1148.67 1848.91 1154.24 1837.87 1159.96C1833.44 1162.25 1829.41 1165.38 1824.89 1167.27C1809.52 1173.64 1794.3 1180.75 1778.39 1185.33C1760.14 1190.6 1741.29 1195.82 1722.44 1196.72C1704.19 1197.61 1686.03 1197.41 1667.93 1201.09C1656.89 1203.33 1645.4 1203.43 1634.11 1204.32C1632.27 1204.47 1630.13 1204.32 1628.54 1203.63C1609.74 1194.92 1588.76 1196.57 1569.36 1191.24C1555.73 1187.51 1542.65 1181.75 1529.38 1176.77C1524.7 1175.03 1520.28 1172.79 1515.55 1171.15C1514.26 1170.71 1511.72 1171.15 1511.02 1172.05C1507 1177.32 1501.18 1176.52 1495.71 1177.77C1487.4 1179.71 1479.64 1183.64 1471.44 1186.02C1464.08 1188.16 1456.47 1189.45 1448.91 1190.9C1446.62 1191.34 1444.18 1190.95 1441.85 1191.24C1427.97 1192.89 1414.2 1194.97 1400.27 1196.17C1387.79 1197.21 1384.95 1199.25 1383.36 1211.64C1383.21 1212.58 1382.91 1213.57 1383.11 1214.47C1387.09 1232.77 1380.48 1250.28 1378.98 1268.18C1378.79 1270.32 1378.84 1272.71 1377.84 1274.45C1368.24 1291.16 1363.22 1310.6 1347.6 1323.73C1342.73 1327.81 1339.05 1333.33 1335.02 1338.3C1327.41 1347.6 1319.75 1355.61 1306.23 1357.15C1294.39 1358.5 1283.1 1363.92 1271.36 1366.65C1265.99 1367.89 1260.17 1366.95 1254.55 1367.15C1248.29 1367.4 1241.57 1366.65 1235.8 1368.54C1226.8 1371.43 1218.2 1370.88 1209.1 1370.38C1197.86 1369.78 1186.52 1371.28 1175.23 1372.37C1173.59 1372.52 1171.7 1375.26 1170.75 1377.24C1167.42 1384.06 1164.49 1391.07 1161.4 1398.03C1161.01 1398.93 1160.46 1399.72 1160.31 1400.67C1156.78 1419.42 1143.95 1433.54 1135.84 1450C1135.25 1451.25 1134.35 1452.54 1133.26 1453.39C1124.25 1460.65 1119.68 1470.84 1113.91 1480.39C1110.78 1485.61 1105.51 1489.89 1100.58 1493.67C1092.72 1499.69 1084.87 1506.3 1075.96 1510.33C1062.98 1516.2 1051.15 1527.09 1034.93 1522.31C1033.59 1521.92 1031.9 1521.52 1030.71 1521.97C1018.87 1526.59 1011.16 1519.68 1003.11 1512.77C998.133 1508.49 992.414 1504.96 986.645 1501.73C970.879 1492.97 958.098 1481.63 950.29 1464.82C947.356 1458.51 942.184 1453.19 937.708 1447.67C932.834 1441.7 930.745 1435.18 930.347 1427.37C929.999 1420.11 927.065 1413.05 926.021 1405.79C924.678 1396.64 923.683 1387.39 923.285 1378.19C922.887 1369.29 920.202 1366.8 911.399 1367.6C906.525 1368.04 901.602 1367.3 896.678 1367C895.485 1366.95 894.192 1366.2 893.197 1366.5C873.752 1372.52 854.853 1362.82 835.507 1364.31C832.623 1364.51 829.639 1361.68 826.555 1360.63C809.845 1355.06 795.025 1345.56 782.144 1334.33C769.313 1323.14 758.322 1309.36 748.774 1295.19C742.259 1285.49 741.165 1272.91 738.578 1261.12C734.998 1244.66 737.683 1228.99 737.236 1212.98C737.087 1208.7 738.877 1204.18 740.618 1200.15C743.054 1194.48 742.109 1192.34 735.943 1191.74C720.824 1190.3 705.606 1189.45 690.686 1187.07C680.441 1185.43 670.594 1181.6 660.548 1178.66C656.022 1177.37 651.547 1175.93 647.17 1174.34C644.982 1173.54 642.943 1172.35 640.953 1171.15C639.76 1170.41 638.865 1168.57 637.721 1168.47C622.751 1166.93 613.352 1154.14 599.675 1149.82C595.398 1148.47 591.917 1144.6 588.038 1142.01C580.578 1137.04 573.019 1132.16 565.559 1127.14C561.829 1124.6 558.248 1123.56 554.618 1127.14C547.456 1134.2 538.007 1134.15 529.155 1134.3C510.207 1134.6 491.209 1133.36 472.261 1133.75C463.806 1133.95 455.6 1136.64 447.096 1133.01C431.828 1126.54 416.411 1120.52 401.044 1114.46C391.296 1110.63 381.349 1107.35 371.652 1103.32C366.977 1101.38 362.6 1098.49 358.423 1095.51C352.057 1090.98 345.94 1086.11 339.872 1081.19C334.949 1077.16 330.025 1072.98 325.549 1068.5C318.189 1061.14 311.127 1053.49 303.916 1045.93C302.424 1044.38 301.081 1042.44 299.241 1041.6C287.554 1036.08 280.442 1025.93 272.634 1016.34C266.517 1008.83 258.908 1002.61 252.542 995.248C248.762 990.922 246.077 985.65 243.093 980.677C235.285 967.746 227.676 954.667 219.868 941.736C218.774 939.946 216.187 938.852 215.64 937.012C211.463 923.534 203.158 911.847 199.925 897.673C196.991 884.842 194.653 871.613 187.79 859.379C182.867 850.576 182.568 838.889 181.325 828.346C180.33 819.643 181.524 810.691 180.778 801.938C179.087 783.189 176.75 764.44 174.81 745.74C174.611 743.999 174.661 741.811 175.556 740.419C181.027 732.113 181.424 722.764 180.281 713.563C179.286 705.556 179.087 698.345 187.542 690.935L187.343 690.835Z" stroke="#F1E5CE" stroke-width="0.5" stroke-miterlimit="10" stroke-linecap="round" stroke-dasharray="4 4"/>
</svg>
